<svg xmlns="http://www.w3.org/2000/svg" width="1400" height="990" preserveAspectRatio="xMidYMid slice" style="width:100%;height:100%;transform:translate3d(0,0,0)"><defs><clipPath id="a"><path d="M0 0h1400v990H0z"/></clipPath><clipPath id="b"><path d="M0 0h660v675H0z"/></clipPath><clipPath id="c"><path d="M0 0h1080v1000H0z"/></clipPath><clipPath id="L"><path fill="#fff" d="M.754-2.999-.496 7.769l150.459 84.75.5-8.768L.754-2.999"/></clipPath><clipPath id="K"><path fill="#fff" d="M.754-2.999-.496 7.769l150.459 84.75.5-8.768L.754-2.999"/></clipPath><clipPath id="J"><path fill="#fff" d="M.754-2.999-.496 7.769l150.459 84.75.5-8.768L.754-2.999"/></clipPath><clipPath id="I"><path fill="#fff" d="m37.367 18.185-1.005 10.217 113.601 64.117.5-8.768L37.367 18.185"/></clipPath><clipPath id="H"><path fill="#fff" d="m127.835 70.53-.4 8.855 22.528 13.134.5-8.768-22.628-13.221"/></clipPath><clipPath id="G"><path fill="#fff" d="M.754-2.999-.496 7.769l150.459 84.75.5-8.768L.754-2.999"/></clipPath><clipPath id="F"><path fill="#fff" d="M.754-2.999-.496 7.769l150.459 84.75.5-8.768L.754-2.999"/></clipPath><clipPath id="E"><path fill="#fff" d="M.754-2.999-.496 7.769l150.459 84.75.5-8.768L.754-2.999"/></clipPath><clipPath id="D"><path fill="#fff" d="M.754-2.999-.496 7.769l150.459 84.75.5-8.768L.754-2.999"/></clipPath><clipPath id="C"><path fill="#fff" d="M.754-2.999-.496 7.769l150.459 84.75.5-8.768L.754-2.999"/></clipPath><clipPath id="B"><path fill="#fff" d="M.754-2.999-.496 7.769l150.459 84.75.5-8.768L.754-2.999"/></clipPath><clipPath id="A"><path fill="#fff" d="M.754-2.999-.496 7.769l150.459 84.75.5-8.768L.754-2.999"/></clipPath><clipPath id="z"><path fill="#fff" d="M.754-2.999-.496 7.769l150.459 84.75.5-8.768L.754-2.999"/></clipPath><clipPath id="y"><path fill="#fff" d="M.754-2.999-.496 7.769l150.459 84.75.5-8.768L.754-2.999"/></clipPath><clipPath id="x"><path fill="#fff" d="M.754-2.999-.496 7.769l150.459 84.75.5-8.768L.754-2.999"/></clipPath><clipPath id="w"><path fill="#fff" d="M.754-2.999-.496 7.769l150.459 84.75.5-8.768L.754-2.999"/></clipPath><clipPath id="v"><path fill="#fff" d="M.754-2.999-.496 7.769l150.459 84.75.5-8.768L.754-2.999"/></clipPath><clipPath id="u"><path fill="#fff" d="M.754-2.999-.496 7.769l150.459 84.75.5-8.768L.754-2.999"/></clipPath><clipPath id="t"><path fill="#fff" d="M.754-2.999-.496 7.769l150.459 84.75.5-8.768L.754-2.999"/></clipPath><clipPath id="s"><path fill="#fff" d="M.754-2.999-.496 7.769l150.459 84.75.5-8.768L.754-2.999"/></clipPath><clipPath id="r"><path fill="#fff" d="M.754-2.999-.496 7.769l150.459 84.75.5-8.768L.754-2.999"/></clipPath><clipPath id="q"><path fill="#fff" d="M.754-2.999-.496 7.769l150.459 84.75.5-8.768L.754-2.999"/></clipPath><clipPath id="p"><path fill="#fff" d="m-.746-4.249.25 12.018 157.959 87.75.25-9.018L-.746-4.249"/></clipPath><clipPath id="o"><path fill="#fff" d="M.754-2.999-.496 7.769l150.459 84.75.5-8.768L.754-2.999"/></clipPath><clipPath id="n"><path fill="#fff" d="M.754-2.999-.496 7.769l150.459 84.75.5-8.768L.754-2.999"/></clipPath><clipPath id="m"><path fill="#fff" d="M.754-2.999-.496 7.769l150.459 84.75.5-8.768L.754-2.999"/></clipPath><clipPath id="l"><path fill="#fff" d="M.754-2.999-.496 7.769l150.459 84.75.5-8.768L.754-2.999"/></clipPath><clipPath id="k"><path fill="#fff" d="M.754-2.999-.496 7.769l150.459 84.75.5-8.768L.754-2.999"/></clipPath><clipPath id="j"><path fill="#fff" d="M.754-2.999-.496 7.769l150.459 84.75.5-8.768L.754-2.999"/></clipPath><clipPath id="i"><path fill="#fff" d="M.754-2.999-.496 7.769l150.459 84.75.5-8.768L.754-2.999"/></clipPath><clipPath id="h"><path fill="#fff" d="M.754-2.999-.496 7.769l150.459 84.75.5-8.768L.754-2.999"/></clipPath><clipPath id="g"><path fill="#fff" d="M.754-2.999-.496 7.769l150.459 84.75.5-8.768L.754-2.999"/></clipPath><clipPath id="f"><path fill="#fff" d="M.754-2.999-.496 7.769l150.459 84.75.5-8.768L.754-2.999"/></clipPath><clipPath id="e"><path fill="#fff" d="M.754-2.999-.496 7.769l150.459 84.75.5-8.768L.754-2.999"/></clipPath><clipPath id="d"><path fill="#fff" d="M.754-2.999-.496 7.769l150.459 84.75.5-8.768L.754-2.999"/></clipPath></defs><g clip-path="url(#a)"><path fill="#21242b" d="M0 0h1400v990H0z" style="display:block"/><g clip-path="url(#b)" style="display:block" transform="translate(236.31 54.5) scale(1.30815)"><path fill="#050915" d="M0 45.5v10.13l141.61 77.98 85.88-47.12V78.6L84.63 0 0 45.5z" style="display:block" transform="translate(184.287 436.687)"/><path fill="#121D40" d="m.97 10.83 143.17 79.76 89-51.06v-9.86S20.57 1.63 8.83.16C-2.92-1.31.97 10.83.97 10.83z" style="display:block" transform="translate(181.277 471.147)"/><path fill="#0D1529" d="M0 52.23v6.56l89-51v-9.86L0 52.23z" style="display:block" transform="translate(325.417 502.197)"/><path fill="#212B4E" d="m0 51.82 146.14 81.19 91.92-53.02L91.94 0 0 51.82z" style="display:block" transform="translate(180.687 423.097)"/><g style="display:block"><path fill="#161B2F" d="M373.647 499.187c-1.02.58-.99 1.48.06 2l8.74 5.46c1.05.52 2.37.76 3.7-.2l6.75-4.09c.99-.75.99-1.4 0-2.13l-9.26-4.8c-1.05-.51-2.75-.45-3.77.12l-6.22 3.64zm-113.77-62.35c-1.05.53-1.07 1.43-.05 2l31.3 17.39c1.01.58 2.32.89 3.69-.01l6.02-3.9c1.01-.69 1.28-1.36.33-2.15l-31.24-17.31c-1.02-.56-2.72-.59-3.77-.07l-6.28 4.05zm-29.88 19.21c-1.05.52-1.07 1.42-.05 2l14.18 8.18c1.02.58 2.32.88 3.7-.01l7.33-4.82c1.02-.69 1.29-1.36.34-2.14l-14.08-8.1c-1.03-.56-2.72-.59-3.77-.07l-7.65 4.96zm122.87 49.72c-1.05.52-1.07 1.42-.05 2l14.07 7.81c1.02.58 2.32.88 3.7-.01l7.46-4.45c1.02-.69 1.28-1.36.34-2.14l-14.55-8.07c-1.03-.56-2.72-.59-3.77-.07l-7.2 4.93zm-109.33-25.15c-1.05.52-1.07 1.42-.05 2l58.68 33.46c1.01.58 2.32.89 3.69 0l7.34-4.83c1.02-.69 1.28-1.36.34-2.14l-58.95-33.08c-1.03-.56-2.73-.59-3.77-.07l-7.28 4.66zm116.28 11.67c-1.03.56-1.02 1.46.02 2l7.95 4.52c1.04.54 2.36.79 3.7-.14l6.12-4.23c.98-.73 1.23-1.4.26-2.16l-7.95-4.52c-1.05-.52-2.75-.49-3.77.07l-6.33 4.46zm-14.5-8.11c-1.03.57-1.02 1.47.02 2l8.75 4.74c1.04.53 2.36.8 3.7-.14l5.64-4.09c1-.73 1.24-1.41.27-2.15l-8.79-4.61c-1.04-.52-2.74-.49-3.77.06l-5.82 4.19zm-8.25 13.47c-1.05.52-1.07 1.42-.05 2l9.49 5.31c1.02.58 2.33.88 3.7-.01l7.09-4.75c1.02-.7 1.28-1.36.34-2.15l-9.44-5.15c-1.02-.56-2.72-.59-3.77-.07l-7.36 4.82zm-14.1-7.51c-1.05.53-1.07 1.43-.05 2.01l9.11 4.83c1.01.57 2.32.88 3.69-.01l7.34-4.82c1.01-.7 1.28-1.36.34-2.15l-9.44-5.15c-1.02-.56-2.72-.59-3.77-.07l-7.22 5.36zm-16.15-9.31c-1.05.52-1.07 1.42-.05 2l9.11 5.33c1.01.57 2.32.88 3.69-.01l7.34-4.82c1.01-.7 1.28-1.36.34-2.15l-9.44-5.15c-1.02-.56-2.72-.59-3.77-.07l-7.22 4.87zm-16.18-8.93c-1.05.52-1.07 1.43-.05 2l9.4 5.3c1.01.58 2.32.89 3.69 0l7.03-4.77c1.01-.7 1.28-1.36.34-2.15l-9.44-5.15c-1.02-.56-2.72-.59-3.77-.07l-7.2 4.84zm-16-8.84c-1.05.53-1.07 1.43-.05 2.01l9.37 5.31c1.01.57 2.32.88 3.69-.01l7.34-4.82c1.02-.7 1.28-1.36.34-2.15l-9.44-5.15c-1.02-.56-2.72-.59-3.77-.07l-7.48 4.88zm-14.5-8.1c-1.05.53-1.07 1.43-.05 2l9.21 5.34c1.02.57 2.32.88 3.7-.01l7.33-4.82c1.02-.7 1.29-1.36.34-2.15l-9.43-5.15c-1.03-.56-2.73-.59-3.77-.07l-7.33 4.86zm70.34 21.27c-1.05.53-1.07 1.43-.05 2.01l9.53 5.1c1.02.57 2.32.88 3.7-.01l5.79-4.37c1.02-.69 1.29-1.36.34-2.14l-9.09-4.71c-1.03-.56-2.72-.59-3.77-.07l-6.45 4.19zm-17.12-9.33c-1.05.52-1.07 1.43-.05 2l9.65 5.27c1.01.58 2.32.88 3.69-.01l6-3.92c1.02-.7 1.28-1.36.34-2.15l-9.43-5.15c-1.03-.56-2.73-.59-3.77-.07l-6.43 4.03zm-63.93-.12c-1.05.53-1.07 1.43-.05 2l9.47 5.32c1.02.58 2.32.88 3.7-.01l7.72-5.16c1.02-.7 1.29-1.36.34-2.15l-9.43-5.15c-1.03-.56-2.72-.59-3.77-.07l-7.98 5.22zm16.16 9.05c-1.05.52-1.07 1.42-.05 2l9.43 5.11c1.02.57 2.33.88 3.7-.01l7.4-4.83c1.02-.7 1.29-1.36.34-2.15l-9.43-5.15c-1.03-.56-2.72-.59-3.77-.07l-7.62 5.1zm30.35 16.78c-1.05.53-1.07 1.43-.05 2.01l9.39 5.3c1.02.58 2.33.89 3.7-.01l8.16-4.79c1.01-.7 1.28-1.36.34-2.15l-9.44-5.15c-1.02-.56-2.72-.59-3.77-.07l-8.33 4.86zm-14.79-8.1c-1.05.52-1.07 1.42-.05 2l9.51 5.28c1.02.57 2.33.88 3.7-.01l7.34-4.82c1.01-.7 1.28-1.36.34-2.15l-9.44-5.15c-1.02-.56-2.72-.59-3.77-.07l-7.63 4.92zm29.54 16.18c-1.05.52-1.07 1.42-.05 2l9.78 5.55c1.01.57 2.32.88 3.69-.01l7.27-4.84c1.01-.7 1.28-1.36.34-2.15l-9.44-5.15c-1.02-.56-2.72-.59-3.77-.07l-7.82 4.67zm14.85 8.08c-1.05.52-1.07 1.42-.05 2l9.16 5.54c1.02.57 2.32.88 3.69-.01l7.47-4.88c1.02-.7 1.29-1.36.34-2.15l-9.43-5.15c-1.03-.56-2.72-.59-3.77-.07l-7.41 4.72zm15.4 8.92c-1.05.52-1.07 1.42-.05 2l9.55 5.32c1.02.58 2.32.88 3.7-.01l6.89-4.81c1.02-.7 1.29-1.36.34-2.15l-9.43-5.15c-1.03-.56-2.72-.59-3.77-.07l-7.23 4.87zm-15.73 8.76c-1.05.52-1.07 1.42-.05 2l9.16 5.54c1.02.57 2.32.88 3.69-.01l7.34-4.82c1.02-.7 1.28-1.36.34-2.15l-9.43-5.15c-1.03-.56-2.73-.59-3.77-.07l-7.28 4.66zm-15.8-9.16c-1.05.52-1.07 1.42-.05 2l9.16 5.54c1.02.57 2.32.88 3.69-.01l7.34-4.82c1.02-.7 1.28-1.36.34-2.15l-9.43-5.15c-1.03-.56-2.73-.59-3.77-.07l-7.28 4.66zm-81.67-45.83c-1.05.52-1.07 1.42-.05 2l9.16 5.54c1.02.57 2.32.88 3.69-.01l7.34-4.82c1.02-.7 1.28-1.36.34-2.15l-9.43-5.15c-1.03-.56-2.73-.59-3.77-.07l-7.28 4.66zm-13.52-7.26c-1.05.52-1.07 1.42-.05 2l8.18 4.94c1.02.57 2.33.88 3.7-.01l7.34-4.82c1.01-.7 1.28-1.36.34-2.15l-8.46-4.55c-1.03-.56-2.73-.59-3.77-.07l-7.28 4.66zm30.71-17.56c-1.05.53-1.07 1.43-.05 2.01l9.42 5.31c1.02.57 2.32.88 3.7-.01l7.33-4.82c1.02-.7 1.29-1.36.34-2.15l-9.43-5.15c-1.03-.56-2.72-.59-3.77-.07l-7.54 4.88zm52.62 11.28c-1.05.52-1.07 1.42-.05 2l9.48 5.16c1.02.57 2.32.88 3.7-.01l5.92-3.99c1.01-.7 1.28-1.36.34-2.15l-9.44-5.15c-1.02-.56-2.72-.59-3.77-.07l-6.18 4.21z"/></g><g style="display:block"><path fill="#2E3A64" d="M373.647 497.877c-1.02.58-.99 1.48.06 2l8.74 5.46c1.05.52 2.37.76 3.7-.2l6.75-4.09c.99-.75.99-1.4 0-2.13l-9.26-4.8c-1.05-.51-2.75-.45-3.77.12l-6.22 3.64zm-113.77-62.35c-1.05.53-1.07 1.43-.05 2l31.3 17.39c1.01.58 2.32.89 3.69-.01l6.02-3.9c1.01-.69 1.28-1.36.33-2.15l-31.24-17.31c-1.02-.56-2.72-.59-3.77-.07l-6.28 4.05zm-29.88 19.21c-1.05.52-1.07 1.42-.05 2l14.18 8.18c1.02.58 2.32.88 3.7-.01l7.33-4.82c1.02-.69 1.29-1.36.34-2.14l-14.08-8.1c-1.03-.56-2.72-.59-3.77-.07l-7.65 4.96zm122.87 49.72c-1.05.52-1.07 1.42-.05 2l14.07 7.81c1.02.58 2.32.88 3.7-.01l7.46-4.45c1.02-.69 1.28-1.36.34-2.14l-14.55-8.07c-1.03-.56-2.72-.59-3.77-.07l-7.2 4.93zm-109.33-25.15c-1.05.52-1.07 1.42-.05 2l58.68 33.46c1.01.58 2.32.89 3.69 0l7.34-4.83c1.02-.69 1.28-1.36.34-2.14l-58.95-33.08c-1.03-.56-2.73-.59-3.77-.07l-7.28 4.66zm116.28 11.67c-1.03.56-1.02 1.46.02 2l7.95 4.52c1.04.54 2.36.79 3.7-.14l6.12-4.23c.98-.73 1.23-1.4.26-2.16l-7.95-4.52c-1.05-.52-2.75-.49-3.77.07l-6.33 4.46zm-14.5-8.11c-1.03.57-1.02 1.47.02 2l8.75 4.74c1.04.53 2.36.8 3.7-.14l5.64-4.09c1-.73 1.24-1.41.27-2.15l-8.79-4.61c-1.04-.52-2.74-.49-3.77.06l-5.82 4.19zm-8.25 13.47c-1.05.52-1.07 1.42-.05 2l9.49 5.31c1.02.58 2.33.88 3.7-.01l7.09-4.75c1.02-.7 1.28-1.36.34-2.15l-9.44-5.15c-1.02-.56-2.72-.59-3.77-.07l-7.36 4.82zm-14.1-7.51c-1.05.53-1.07 1.43-.05 2.01l9.11 4.83c1.01.57 2.32.88 3.69-.01l7.34-4.82c1.01-.7 1.28-1.36.34-2.15l-9.44-5.15c-1.02-.56-2.72-.59-3.77-.07l-7.22 5.36zm-16.15-9.31c-1.05.52-1.07 1.42-.05 2l9.11 5.33c1.01.57 2.32.88 3.69-.01l7.34-4.82c1.01-.7 1.28-1.36.34-2.15l-9.44-5.15c-1.02-.56-2.72-.59-3.77-.07l-7.22 4.87zm-16.18-8.93c-1.05.52-1.07 1.43-.05 2l9.4 5.3c1.01.58 2.32.89 3.69 0l7.03-4.77c1.01-.7 1.28-1.36.34-2.15l-9.44-5.15c-1.02-.56-2.72-.59-3.77-.07l-7.2 4.84zm-16-8.84c-1.05.53-1.07 1.43-.05 2.01l9.37 5.31c1.01.57 2.32.88 3.69-.01l7.34-4.82c1.02-.7 1.28-1.36.34-2.15l-9.44-5.15c-1.02-.56-2.72-.59-3.77-.07l-7.48 4.88zm-14.5-8.1c-1.05.53-1.07 1.43-.05 2l9.21 5.34c1.02.57 2.32.88 3.7-.01l7.33-4.82c1.02-.7 1.29-1.36.34-2.15l-9.43-5.15c-1.03-.56-2.73-.59-3.77-.07l-7.33 4.86zm70.34 21.27c-1.05.53-1.07 1.43-.05 2.01l9.53 5.1c1.02.57 2.32.88 3.7-.01l5.79-4.37c1.02-.69 1.29-1.36.34-2.14l-9.09-4.71c-1.03-.56-2.72-.59-3.77-.07l-6.45 4.19zm-17.12-9.33c-1.05.52-1.07 1.43-.05 2l9.65 5.27c1.01.58 2.32.88 3.69-.01l6-3.92c1.02-.7 1.28-1.36.34-2.15l-9.43-5.15c-1.03-.56-2.73-.59-3.77-.07l-6.43 4.03zm-63.93-.12c-1.05.53-1.07 1.43-.05 2l9.47 5.32c1.02.58 2.32.88 3.7-.01l7.72-5.16c1.02-.7 1.29-1.36.34-2.15l-9.43-5.15c-1.03-.56-2.72-.59-3.77-.07l-7.98 5.22zm16.16 9.05c-1.05.52-1.07 1.42-.05 2l9.43 5.11c1.02.57 2.33.88 3.7-.01l7.4-4.83c1.02-.7 1.29-1.36.34-2.15l-9.43-5.15c-1.03-.56-2.72-.59-3.77-.07l-7.62 5.1zm30.35 16.78c-1.05.53-1.07 1.43-.05 2.01l9.39 5.3c1.02.58 2.33.89 3.7-.01l8.16-4.79c1.01-.7 1.28-1.36.34-2.15l-9.44-5.15c-1.02-.56-2.72-.59-3.77-.07l-8.33 4.86zm-14.79-8.1c-1.05.52-1.07 1.42-.05 2l9.51 5.28c1.02.57 2.33.88 3.7-.01l7.34-4.82c1.01-.7 1.28-1.36.34-2.15l-9.44-5.15c-1.02-.56-2.72-.59-3.77-.07l-7.63 4.92zm29.54 16.18c-1.05.52-1.07 1.42-.05 2l9.78 5.55c1.01.57 2.32.88 3.69-.01l7.27-4.84c1.01-.7 1.28-1.36.34-2.15l-9.44-5.15c-1.02-.56-2.72-.59-3.77-.07l-7.82 4.67zm14.85 8.08c-1.05.52-1.07 1.42-.05 2l9.16 5.54c1.02.57 2.32.88 3.69-.01l7.47-4.88c1.02-.7 1.29-1.36.34-2.15l-9.43-5.15c-1.03-.56-2.72-.59-3.77-.07l-7.41 4.72zm15.4 8.92c-1.05.52-1.07 1.42-.05 2l9.55 5.32c1.02.58 2.32.88 3.7-.01l6.89-4.81c1.02-.7 1.29-1.36.34-2.15l-9.43-5.15c-1.03-.56-2.72-.59-3.77-.07l-7.23 4.87zm-15.73 8.76c-1.05.52-1.07 1.42-.05 2l9.16 5.54c1.02.57 2.32.88 3.69-.01l7.34-4.82c1.02-.7 1.28-1.36.34-2.15l-9.43-5.15c-1.03-.56-2.73-.59-3.77-.07l-7.28 4.66zm-15.8-9.16c-1.05.52-1.07 1.42-.05 2l9.16 5.54c1.02.57 2.32.88 3.69-.01l7.34-4.82c1.02-.7 1.28-1.36.34-2.15l-9.43-5.15c-1.03-.56-2.73-.59-3.77-.07l-7.28 4.66zm-81.67-45.83c-1.05.52-1.07 1.42-.05 2l9.16 5.54c1.02.57 2.32.88 3.69-.01l7.34-4.82c1.02-.7 1.28-1.36.34-2.15l-9.43-5.15c-1.03-.56-2.73-.59-3.77-.07l-7.28 4.66zm-13.52-7.26c-1.05.52-1.07 1.42-.05 2l8.18 4.94c1.02.57 2.33.88 3.7-.01l7.34-4.82c1.01-.7 1.28-1.36.34-2.15l-8.46-4.55c-1.03-.56-2.73-.59-3.77-.07l-7.28 4.66zm30.71-17.56c-1.05.53-1.07 1.43-.05 2.01l9.42 5.31c1.02.57 2.32.88 3.7-.01l7.33-4.82c1.02-.7 1.29-1.36.34-2.15l-9.43-5.15c-1.03-.56-2.72-.59-3.77-.07l-7.54 4.88zm52.62 11.28c-1.05.52-1.07 1.42-.05 2l9.48 5.16c1.02.57 2.32.88 3.7-.01l5.92-3.99c1.01-.7 1.28-1.36.34-2.15l-9.44-5.15c-1.02-.56-2.72-.59-3.77-.07l-6.18 4.21z"/></g><path fill="#050915" d="M2.37 75.32c-3.17-1.84-3.16-4.82.03-6.64L120.5 1.35c3.18-1.81 8.38-1.8 11.56.04l66 38.21c3.18 1.83 3.17 4.82-.02 6.64l-118.1 67.33c-3.19 1.81-8.39 1.8-11.56-.04L2.37 75.32z" style="display:block" transform="translate(50.589 347.531)"/><path fill="#0D1529" d="M0 69.73c0-1.31.56-2.24 1.33-2.62 2.21-1.44 6.64-4.04 9.86-5.76L124.98.28c.7-.38 1.56-.37 2.25.03l70.28 36.68c.8.39 2.67 1.31 3.25 3.35.64 2.27.72 5.2-2.49 6.82L79.24 114.59a10.43 10.43 0 0 1-10.33-.03L1.17 75.63A2.279 2.279 0 0 1 0 73.64v-3.91z" style="display:block" transform="translate(49.419 333.761)"/><path fill="#121D40" d="M0 8.45c0-1.32.56-2.26 1.33-2.64C3.52 4.36 7.93 1.74 11.14 0c0 0 65.85 48.96 62.65 50.6v4.47c-1.8.01-3.6-.45-5.21-1.39L1.16 14.41A2.322 2.322 0 0 1 0 12.4V8.45z" style="display:block" transform="translate(49.419 394.631)"/><path fill="#212B4E" d="M2.36 74.09c-3.16-1.8-3.15-4.74.03-6.53L120.02 1.33c3.17-1.79 8.35-1.77 11.51.04l65.74 37.58c3.16 1.81 3.15 4.75-.02 6.53L79.62 111.72c-3.17 1.78-8.35 1.77-11.51-.04L2.36 74.09z" style="display:block" transform="translate(49.419 330.861)"/><g style="display:block"><path fill="#7ED8E9" d="m63.199 393.481 97.08-53.91 72.98 42.17-95.07 53.48-74.99-41.74z"/><path fill="none" stroke="#1C2540" d="m63.199 393.481 97.08-53.91 72.98 42.17-95.07 53.48-74.99-41.74z"/></g><path fill="#38487D" d="M8.87 3.62c0 2-1.98 3.63-4.43 3.63C1.99 7.25 0 5.62 0 3.62S1.99 0 4.44 0s4.43 1.62 4.43 3.62" style="display:block" transform="translate(89.349 417.821)"/><path fill="#38487D" d="m.26 1.67 12.2 6.95c.16.09.35.1.52.02l1.51-.71c.38-.19.4-.7.03-.91L2.33.07a.595.595 0 0 0-.52-.02L.3.77c-.38.18-.4.7-.04.9" style="display:block" transform="translate(195.819 349.701)"/><path fill="#0D1529" d="M1.92 20.4S0 21.45 0 22.35c0 .91 1.61 3.26 1.61 3.26l78.22 43.98 40.71-21.8L41.35 0" style="display:block" transform="translate(331.148 391.355)"/><path fill="#212B4E" d="M1.92 20.4S0 21.45 0 22.35c0 .91 1.92 1.79 1.92 1.79l78.22 43.98 40.71-21.8L41.35 0" style="display:block" transform="translate(331.148 388.725)"/><path fill="#0D1529" d="M23.17 268.85 0 4.91 10.08-.36l303.24 169.44V428l-10.4 7.1" style="display:block" transform="translate(251.068 64.115)"/><path fill="#212B4E" d="M0 260.24V-1.88l306.11 171.85-1.37 263.11L0 260.24z" style="display:block" transform="translate(250.888 66.785)"/><g style="display:block"><path fill="#38487D" d="m261.858 314.425-2.1-230.05 283.92 160.65v227.76l-281.82-158.36z"/><path fill="none" stroke="#1C2540" stroke-linecap="round" stroke-linejoin="round" d="m261.858 314.425-2.1-230.05 283.92 160.65v227.76l-281.82-158.36z"/></g><g style="display:block"><path fill="#050915" d="M524.85 582.849c-2.63.35-4.45 3.57-5.12 8.8-4.07 8.05-12.31 7.1-12.31 7.1v7.8s7.78.59 12.98-2.86c5.2-3.45 7.37-8.76 8.03-12.04.66-3.27-.17-8.8-3.58-8.8zm-88.91 23.14c0 11.21 16.82 20.3 37.56 20.3 20.75 0 37.57-9.09 37.57-20.3 0-11.22-16.82-20.6-37.57-20.6-20.74 0-37.56 9.38-37.56 20.95"/></g><path fill="#20294A" d="M0 90.16c0 11.27 16.9 20.4 37.74 20.4 20.84 0 37.74-9.13 37.74-20.4V20.71C75.48 9.43 58.58 0 37.74 0 16.9 0 0 9.43 0 21.06v69.57" style="display:block" transform="translate(435.94 502.559)"/><path fill="#1A203B" d="M2.19 89.5c14.68-1.25 30.92-8.79 30.92-20.06V0C32.72 2.64.36 17.94 0 21.82c7.5.28 25.12-2.33 25.12 8.29v39.33c0 10.04-8.35 13.76-22.93 20.06z" style="display:block" transform="translate(478.31 523.619)"/><path fill="#2B3862" d="M0-21.72c20.829 0 37.74 9.733 37.74 21.72 0 11.987-16.911 21.72-37.74 21.72S-37.74 11.987-37.74 0c0-11.987 16.911-21.72 37.74-21.72z" style="display:block" transform="translate(473.68 524.279)"/><path fill="#2B3862" d="M0-19.745c18.635 0 33.765 8.848 33.765 19.745S18.635 19.745 0 19.745c-18.635 0-33.765-8.848-33.765-19.745S-18.635-19.745 0-19.745z" style="display:block" transform="translate(473.675 522.304)"/><g opacity=".52" style="display:block"><path fill="#252F53" d="M473.93 518.879c3.42-6.12.88-14.93 0-16.32-18.79 0-34.02 9.01-34.02 20.11 0 3.99 2.14 9.61 11.99 15.43 7.86-6.35 18.61-13.09 22.03-19.22z" opacity="1"/></g><path fill="#7ED8E9" d="M29.56 22.38c15.86 0 30.03-8.2 30.03-11.19S45.88 0 29.56 0C13.23 0 0 8.01 0 11.19c0 3.17 13.69 11.19 29.56 11.19z" style="display:block" transform="translate(443.89 519.669)"/><path fill="#2B3862" d="M0 7.91s10.21-.44 12.43 8.38c1.09 6.25 1.72 21.13-.69 26.54C7.55 50.95 0 49.93 0 49.93v7.88s7.07.65 12.43-2.83c5.35-3.49 7.59-8.85 8.27-12.15.68-3.3.62-22.05 0-26.89s-2.09-8.35-7.2-12.13C8.4.02 0 0 0 0v7.91z" style="display:block" transform="translate(511.42 532.829)"/><path fill="#2B3862" d="M12.34 4.62c1.07 6.21.96 20.72-1.39 26.09C6.86 38.77 0 37.19 0 37.19v3.14s3.88 1.54 9.11-1.92c5.23-3.46 5.15-5.54 5.81-8.82.66-3.27 1.26-22.06.82-24.97-.44-2.91-5.56-8.75-3.4 0z" style="display:block" transform="translate(511.42 545.999)"/><path fill="#1A203B" d="M0 8.05s11.75-.61 13.93 8.21c1.06 6.25 1.68 21.12-.68 26.54C9.14 50.91.82 49.95.82 49.95v7.88s7.86.59 13.11-2.89c5.25-3.48 7.44-8.84 8.1-12.14.67-3.31.61-22.05 0-26.89s-2.05-8.34-7.05-12.13C9.97 0 0 0 0 0v8.05z" style="display:block" transform="translate(510.1 535.469)"/><path fill="#7ED8E9" fill-opacity=".5" d="m-.01 326.66 153.14 85.1.77-327.14L1.72 0-.01 326.66z" style="display:block" transform="translate(294.536 55.916)"/><g opacity=".73" style="display:block"><path fill="#78CCDE" d="M296.206 55.986s-.24-6.93 0-9.42c.23-2.5 2.38-5.18 5.71-3.86 70.49 36.49 140.57 80.13 140.57 80.13s3.69 2.67 4.65 5.27c.95 2.61 1.34 13.03 1.34 13.03l-152.27-85.15z" opacity="1"/></g><g style="display:block"><path fill="#7ED8E9" d="M425.346 121.386c.02 1.09.7 2.11 1.75 2.28 1.05.17 1.92-.85 1.95-2.28.03-1.42-.84-2.44-1.95-2.27-1.1.16-1.77 1.18-1.75 2.27zm13.24 7.9c.02 1.09.7 2.11 1.75 2.28 1.05.17 1.92-.85 1.95-2.28.03-1.42-.84-2.44-1.95-2.27-1.1.16-1.77 1.18-1.75 2.27zm-6.62-3.95c.02 1.09.7 2.11 1.75 2.28 1.05.17 1.92-.85 1.95-2.28.03-1.42-.84-2.44-1.95-2.27-1.1.16-1.77 1.18-1.75 2.27z"/></g><g style="display:block"><path fill="#FFF" d="M439.476 232.387c.02 1.09.7 2.11 1.75 2.28 1.05.17 1.92-.85 1.95-2.28.03-1.42-.84-2.44-1.95-2.27-1.1.16-1.77 1.18-1.75 2.27zm2.54 1.02a.442.442 0 0 1-.16-.6c.12-.21.4-.28.61-.16l146.06 85.41c.21.12.28.39.15.6-.12.21-.39.28-.6.15l-146.06-85.4zm153.68 81.26s4.59 2.26 7.21 3.75c.72.39 1.63.51 1.98-.34.35-.85-.19-1.32-.63-1.67-1.95-1.26-5.19-2.86-7.5-4.24-.58-.28-2.35-.71-2.35.49s1.29 2.01 1.29 2.01zm0 13.01s4.59 2.26 7.21 3.75c.72.39 1.63.51 1.98-.34.35-.85-.19-1.32-.63-1.67-1.95-1.26-5.19-2.86-7.5-4.24-.58-.28-2.35-.71-2.35.49s1.29 2.01 1.29 2.01zm0-6.58s9.85 5.5 12.47 7c.72.39 1.63.51 1.98-.34.35-.86-.19-1.33-.63-1.67-1.95-1.26-10.45-6.11-12.76-7.49-.58-.28-2.35-.71-2.35.49s1.29 2.01 1.29 2.01z"/></g><g style="display:block"><path fill="#FFF" d="M185.666 191.657a.442.442 0 0 1-.16-.6.44.44 0 0 1 .6-.16l113.62 66.32c.22.13.29.39.16.6a.44.44 0 0 1-.6.16l-113.62-66.32zm-13.72.45s8.59 4.34 11.21 5.83c.72.4 1.63.52 1.98-.34.36-.85-.19-1.32-.63-1.67-1.95-1.26-9.19-4.94-11.5-6.32-.58-.28-2.35-.71-2.35.49s1.29 2.01 1.29 2.01zm0-5.27s4.59 2.26 7.21 3.75c.72.39 1.63.51 1.98-.34.35-.85-.19-1.32-.63-1.67-1.95-1.26-5.19-2.86-7.5-4.24-.58-.28-2.35-.71-2.35.49s1.29 2.01 1.29 2.01zm0-5.26s4.59 2.26 7.21 3.75c.72.39 1.63.51 1.98-.34.35-.85-.19-1.32-.63-1.67-1.95-1.26-5.19-2.86-7.5-4.24-.58-.28-2.35-.71-2.35.49s1.29 2.01 1.29 2.01zm127.16 77.14c.02 1.09.7 2.11 1.75 2.28 1.05.17 1.92-.85 1.95-2.28.03-1.42-.84-2.44-1.95-2.27-1.1.16-1.77 1.18-1.75 2.27z"/></g><g clip-path="url(#c)" style="display:block" transform="matrix(.87363 0 0 .876 -101.76 -100)"><g class="5" clip-path="url(#H)" style="display:block" transform="translate(546 325)"><g class="5"><path fill="#7ED8E9" d="M3.37 7.55s3.03 1.51 9.77 5.38c1.84 1.02 4.19 1.33 5.09-.88.91-2.21-.48-3.43-1.61-4.32C11.6 4.47 10.79 3.99 4.84.43 4.06-.09.41-.71.03 2.3c-.37 3.01 3.34 5.25 3.34 5.25zm24.95 13.1s11.8 5.85 18.54 9.71c1.85 1.03 4.19 1.34 5.1-.87.9-2.21-.49-3.43-1.62-4.32-5.02-3.27-14.59-8.08-20.54-11.64-1.48-.73-4.8-1.18-4.8 1.93s3.32 5.19 3.32 5.19z"/></g></g><g class="4" clip-path="url(#I)" style="display:block" transform="translate(448 252)"><g class="4"><path fill="#7ED8E9" d="M36.37 25.55s3.03 1.51 9.77 5.38c1.84 1.02 4.19 1.33 5.09-.88.91-2.21-.48-3.43-1.61-4.32-5.02-3.26-5.83-3.74-11.78-7.3-.78-.52-4.43-1.14-4.81 1.87-.37 3.01 3.34 5.25 3.34 5.25zM3.32 7.65s11.8 5.85 18.54 9.71c1.85 1.03 4.19 1.34 5.1-.87.9-2.21-.49-3.43-1.62-4.32C20.32 8.9 10.75 4.09 4.8.53 3.32-.2 0-.65 0 2.46s3.32 5.19 3.32 5.19zm57.05 32.27s65.02 37.44 84.53 48.61c1.84 1.02 4.18 1.33 5.09-.88.91-2.21-.49-3.42-1.62-4.32-19.01-11.32-71.32-41.63-87.32-51.19-.7-.26-3.64-.48-4.02 2.53-.37 3.01 3.34 5.25 3.34 5.25z"/></g></g><g class="3" clip-path="url(#J)" style="display:block" transform="translate(524 277)"><path fill="#7ED8E9" d="M3.37 7.81s46.25 26.76 65.76 37.93c1.84 1.03 4.18 1.34 5.09-.87.91-2.21-.49-3.43-1.62-4.32C53.59 29.22 20.91 10.03 4.91.47 3.64-.3.41-.44.03 2.56c-.37 3.01 3.34 5.25 3.34 5.25z"/></g><g class="2" clip-path="url(#K)" style="display:block" transform="translate(481 235)"><g class="2"><path fill="#7ED8E9" d="M3.37 7.55s3.03 1.51 9.77 5.38c1.84 1.02 4.19 1.33 5.09-.88.91-2.21-.48-3.43-1.61-4.32C11.6 4.47 10.79 3.99 4.84.43 4.06-.09.41-.71.03 2.3c-.37 3.01 3.34 5.25 3.34 5.25zm24 13.37s65.02 37.44 84.53 48.61c1.84 1.02 4.18 1.33 5.09-.88.91-2.21-.49-3.42-1.62-4.32C96.36 53.01 44.05 22.7 28.05 13.14c-.7-.26-3.64-.48-4.02 2.53-.37 3.01 3.34 5.25 3.34 5.25z"/></g></g><g class="1" clip-path="url(#L)" style="display:block" transform="translate(447 195)"><g class="1"><path fill="#7ED8E9" d="M56.37 38.55s3.03 1.51 9.77 5.38c1.84 1.02 4.19 1.33 5.09-.88.91-2.21-.48-3.43-1.61-4.32-5.02-3.26-5.83-3.74-11.78-7.3-.78-.52-4.43-1.14-4.81 1.87-.37 3.01 3.34 5.25 3.34 5.25zm23 13.37s46.11 25.8 65.61 36.97c1.84 1.03 4.18 1.34 5.09-.87.91-2.21-.49-3.43-1.61-4.32-19.02-11.33-52.41-30-68.41-39.56-.7-.26-3.64-.48-4.02 2.53-.37 3.01 3.34 5.25 3.34 5.25zm-76-44S22.4 18.77 41.9 29.94c1.85 1.03 4.19 1.34 5.1-.87.9-2.21-.49-3.43-1.62-4.32C26.36 13.42 20.05 9.7 4.05.14 3.35-.12.41-.34.03 2.67c-.37 3.01 3.34 5.25 3.34 5.25z"/></g></g></g></g></g></svg>