<svg xmlns="http://www.w3.org/2000/svg" width="1400" height="990" preserveAspectRatio="xMidYMid slice" style="width:100%;height:100%;transform:translate3d(0,0,0)"><defs><clipPath id="a"><path d="M0 0h1400v990H0z"/></clipPath><clipPath id="b"><path d="M0 0h660v675H0z"/></clipPath><clipPath id="f"><path d="M0 0h1080v1000H0z"/></clipPath><clipPath id="g"><path fill="#fff" d="m199.334 269.023 112.99-64.75s-1.835-218.966-1.775-269.42c.009-7.71-2.338-11.514-5.293-10.258-17.807 7.567-68.768 39.963-93.738 51.813-6.546 3.106-9.396 8.53-10.162 11.61-3.868 15.54-2.022 281.005-2.022 281.005"/></clipPath><clipPath id="e"><path d="M0 0h1080v1000H0z"/></clipPath><clipPath id="c"><path fill="#fff" d="M18.5 2S10.505 5.334 7.575 7.913C4.645 10.492 3 15.742 3 15.742l12.5 15.27s25.225 7.69 34.685 6.46c9.46-1.23 42.715-8.96 42.715-8.96l9-7.512s-.461-6.161-3.729-10.235c-3.026-3.773-15.4-7.068-19.546-8.927C66.145-3.759 18.5 2 18.5 2"/></clipPath><mask id="d"><path fill="#fff" d="M-80.729-240.767h660v675h-660z"/><path d="m61.625 77.5-14 58.26 29.91-13.51-15.91-44.75"/></mask></defs><g clip-path="url(#a)"><path fill="#21242b" d="M0 0h1400v990H0z" style="display:block"/><g clip-path="url(#b)" style="display:block" transform="matrix(1.42667 0 0 1.42667 217.199 9.499)"><g style="display:block"><path fill="#7ED8E9" d="m496.221 365.56 3.7-.08c2.8.28 4.21 1.03 4.21 2.25 0 .29-.03.56-.08.81-.17.75.3 1.49 1.05 1.66.09.02.19.03.29.03l6.03.03c1.8.62 2.71 1.39 2.71 2.31 0 .92-.91 1.67-2.71 2.26l4.12.18c.05 0 .1 0 .16.01 1.82.29 2.73 1.09 2.73 2.41 0 1.33-5.56 1.88-16.67 1.63l-8.82.08 3.28-13.58zm-69.596 49.302c3.071 0 5.565 1.557 5.565 3.475 0 1.918-2.494 3.475-5.565 3.475s-5.565-1.557-5.565-3.475c0-1.918 2.494-3.475 5.565-3.475zm-29.209-17.265c7.034 0 12.745 3.06 12.745 6.83s-5.711 6.83-12.745 6.83c-7.034 0-12.745-3.06-12.745-6.83s5.711-6.83 12.745-6.83zm-3.265-29.257 5.08 15.59s-3.71-.62-8.52-1.67c-4.82-1.05-9.58-.95-9.58-2.28 0-1.33.93-2.13 2.77-2.41.03-.01.05-.01.08-.01l3.55-.35c1.39-.49 2.08-1.2 2.08-2.12 0-.92-1.13-2.16-3.24-2.64h-3.94c-.29 0-.83-.27-.83-.27-.63-.48-.95-1.22-.95-2.21 0-1.22 3.32-1.43 9.8-1.71l3.7.08zm50.99 6.83-54.73-2.74c0 13.83 24.5 25.04 54.73 25.04 30.22 0 54.72-11.21 54.72-25.04l-54.72 2.74z"/></g><path fill="#0D132A" d="M105.56 22.61c3.52 13.21-1.41 22.28-14.8 27.2-20.08 7.38-49.2 8.38-75.29 0-13.7-4.4-18.3-13.47-13.8-27.2C1.67 7.25 23.78 0 54.13 0c30.34 0 51.43 9.55 51.43 22.61z" style="display:block" transform="translate(393.695 253.849)"/><g clip-path="url(#c)" style="display:block" transform="translate(395.355 267.759)"><path fill="#7ED8E9" d="M103.9 22.61v4.81s-34.34 9.44-51.44 9.59C35.36 37.16 0 28.32 0 28.32v-5.71C0 7.25 22.12 0 52.46 0s51.44 9.55 51.44 22.61z"/></g><g style="display:block"><path fill="#212B4E" d="M391.351 286.18v.51l.5 80.18c0 13.83 24.6 25.04 54.94 25.04 30.35 0 54.94-11.21 54.94-25.04v-76.68c0-13.34-6.731 15.31-54.94 15.45-44.791.13-55.44-33.29-55.44-19.46z"/><path fill="none" stroke="#1F2946" d="M391.351 286.18v.51l.5 80.18c0 13.83 24.6 25.04 54.94 25.04 30.35 0 54.94-11.21 54.94-25.04v-76.68c0-13.34-6.731 15.31-54.94 15.45-44.791.13-55.44-33.29-55.44-19.46z"/></g><path fill="#171F36" d="M0 4.43v11.28c1.08 16.26 26.8 25.04 57.15 25.04 30.34 0 57.46-9.58 57.46-25.04V3.29c-.74 14.1-6.93 21.05-20.28 25.61-9.35 3.19-22.51 4.89-37.18 4.89-11.66 0-24.28-1.98-32.47-4.08C10.61 26.12.13 18.84 1.08 0" style="display:block" transform="translate(389.651 269.1)"/><g style="display:block"><path fill="#20294A" d="M499.261 276.11c0 15.35-22.12 22.6-52.46 22.6s-51.44-9.54-51.44-22.6c0-12.71 21.1-22.26 51.44-22.26 30.34 0 52.46 7.25 52.46 22.61m-108.88-4.77c0 16 9.5 25.59 23.57 29.18 8.19 2.09 21.18 4.72 32.84 4.72 14.68 0 28.11-2.41 37.46-5.6 13.36-4.56 19.81-13.93 19.81-26.84 0-14.37-29.41-24.51-57.26-24.51-17.52 0-56.42 7.7-56.42 23.05z"/></g><path fill="#2E3A64" d="M0 0c0 13.83 24.5 25.47 54.84 25.47 30.35 0 55.03-11.64 55.03-25.47l-.11 51.47c0 13.82-24.57 25.47-54.92 25.47C24.5 76.94 0 65.29 0 51.47V2.81" style="display:block" transform="translate(391.851 298.11)"/><path fill="#242E52" d="M9.68 21.68C2.26 27.7 2.4 31.31 6.43 34.7c4.03 3.39 9.14 3.39 15.3 0L69.65.56c1.46-.75 2.49-.75 3.09 0 .6.75.18 1.7-1.26 2.86l-47.3 33.32c-8.25 5.27-15.26 5.54-21.04.81-5.77-4.73-3.59-11.16 6.54-19.27" style="display:block" transform="translate(381.961 303.04)"/><path fill="#7ED8E9" d="M0 3.2v13.39s.73 4.11 3.87 4.11 4.29-1.39 4.29-1.39v17.66s1.61 2.64 3.98 2.64c2.38 0 3.89-2.64 3.89-2.64V22.94s.72 2.74 4.17 2.74 3.22-7.29 3.22-7.29V0L0 3.2z" style="display:block" transform="translate(456.621 294.51)"/><g style="display:block"><path fill="#050915" fill-opacity=".75" d="M471.133 441.989c3.455 0 6.26 1.246 6.26 2.78 0 1.534-2.805 2.78-6.26 2.78-3.455 0-6.26-1.246-6.26-2.78 0-1.534 2.805-2.78 6.26-2.78zm100.046 27.135s-10.97-1.93-16.86-1.61c-2.46.14-5.88 2.49-10.26 3.33-2.59.5-8.79 0-8.79 0s-14.58-4.29-19.93-7.59c-15.07-9.3-23.75-18.7-30.72-20.84-14.18-4.37-24.91-1.97-24.91-1.97s.62 9.33 6.45 13.11c6.3 4.1 15.06 4.97 21.09 7.23 10.4 3.91 17.11 7.84 21.15 10.06 8.49 4.67 10.45 7.11 11.71 8.54 1.25 1.42 1.11 2.57.2 4.17-2.06 3.6-4.25 6.96-4.97 8.6-1.44 3.27 2.33 5.31 2.33 5.31l53.51-28.34zm-20.8 45.41 51.6-27.84-30.88-17.52-53.39 28.25 32.67 17.11z"/></g><path fill="#FFF" d="m32.55 45.36 51.6-27.84L53.27 0 0 27.78l32.55 17.58z" style="display:block" transform="translate(517.839 452.482)"/><path fill="#3C4A81" d="M105.04 34.88s-6.69-.33-12.58 0c-2.46.13-5.88 2.49-10.26 3.33-2.59.49-8.79 0-8.79 0s-14.58-4.3-19.94-7.6c-15.06-9.3-23.75-18.7-30.72-20.84C8.58 5.41.36 0 .36 0s-1.63 12.75 4.19 16.53c6.3 4.1 18.14 5.78 24.17 8.04 10.4 3.9 14.53 6.15 18.57 8.37 5.53 2.59 12.52 7.04 12.52 10.06 0 3.03-2.8 6.65-4.46 9.72-1.17 2.17-1.35 5.64-.62 8.01 1.17 1.65 3.51 2.83 3.51 2.83s3.63-4.72 5.42-5.81c1.79-1.1 41.38-22.87 41.38-22.87z" style="display:block" transform="translate(459.379 423.902)"/><path fill="#2E3A64" d="M111.47 29.53s-10.97-1.93-16.86-1.61c-2.46.14-5.88 2.49-10.26 3.33-2.59.5-8.79 0-8.79 0s-14.58-4.29-19.93-7.59c-15.07-9.3-23.75-18.7-30.72-20.84C10.73-1.55 0 .85 0 .85s.62 9.33 6.45 13.11c6.3 4.1 15.06 4.97 21.09 7.23 10.4 3.91 17.11 7.84 21.15 10.06 8.49 4.67 10.45 7.11 11.71 8.54 1.25 1.42 1.11 2.57.2 4.17-2.06 3.6-4.25 6.96-4.97 8.6-1.44 3.27 2.33 5.31 2.33 5.31l53.51-28.34z" style="display:block" transform="translate(459.709 422.902)"/><path fill="#FFF" d="M0 0v7.34l27.78 15.24v-7.93L0 0z" style="display:block" transform="translate(523.059 483.082)"/><path fill="#7ED8E9" d="M0 27.85 50.99 0s.47.58.64.92c-.16.26-.38.49-.56.74.12.17.49.85.83 1.37-.19.16-.55.38-.91.63.08.25.3.83.64 1.16-.13.15-.44.35-.64.66.2.24.54.61.82.96-.18.25-.74.91-.74.91L0 35.7v-7.85z" style="display:block" transform="translate(550.969 469.972)"/><path fill="none" stroke="#B8B8B8" stroke-opacity=".17" stroke-width=".2" d="M26.86 42.17 0 27.41l6.4-3.5 24.96 14.83L37 35.51 13.25 20.46l3.86-1.95 23.11 14.8 3.92-2.1-23.53-15.06 2.96-1.68 22.98 15.3 1.29-.95-21.81-15.34 4.9-2.61 20.49 16.17 3.5-2.43L34.34 9.07l5.49-2.9 20.16 15.52 4.56-2.53L44.14 4.34l3.07-2.3 21.33 14.78 2.99-1.59L50.3.89 51.98 0l22.4 12.93" style="display:block" transform="translate(524.719 455.392)"/><path fill="#7ED8E9" d="M0 29.11s3.32-1.54 4.73-2.57c4.15-3.02 6.57-5.81 8.98-7.4 6.09-4.03 11-1.97 15.36-4.71 4.86-3.06 4.39-3.88 6.94-5.66 1.81-1.27 6.1-1.74 8.36-3.12C47.75 3.61 50.89 0 50.89 0l13.75 8.08s-4.28 6.11-11.27 9.89c-3.95 2.14-14.52 6.44-30.79 13.56-2.91 1.28-8.87 4.41-8.87 4.41L0 29.11z" style="display:block" transform="translate(537.369 461.882)"/><path fill="#212B4E" d="M5.86 31.24 59.28 3.09 53.52 0 0 28.22l5.86 3.02z" style="display:block" transform="translate(517.369 452.312)"/><path fill="#212B4E" d="M0 0v6.9l5.87 3.2V3.15L0 0z" style="display:block" transform="translate(517.469 480.442)"/><path fill="#7ED8E9" d="M15.48 6.88v8.11L1.04 6.88S-.13 4.79.02 3.52C.16 2.25 1.82 0 1.82 0l13.66 6.88z" style="display:block" transform="translate(535.579 490.952)"/><path fill="#283257" d="M0-2.78c3.455 0 6.26 1.246 6.26 2.78 0 1.534-2.805 2.78-6.26 2.78-3.455 0-6.26-1.246-6.26-2.78 0-1.534 2.805-2.78 6.26-2.78z" style="display:block" transform="translate(477.399 432.242)"/><path fill="#6099BD" d="M16.07 0 8.56 3.5l9.68 38.14-15.19 6.48L0 60.84l32.56-15.46L16.07 0z" style="display:block" transform="translate(126.869 317.807)"/><g mask="url(#d)" style="display:block" transform="translate(80.729 240.767)"><path fill="#50819E" d="m61.77 77.31-14.25 58.62 29.97-13.66-15.72-44.96zM0 226.26l30.01-15.86 11.21-41.11 43.57-20.15 9.31 26.43 24.56-11.91L60.03 0 0 226.26z"/></g><path fill="#6099BD" d="M78.62 5.57 63.86 0 0 223.91 18.94 232 78.62 5.57z" style="display:block" transform="translate(62.149 235.127)"/><path fill="#6099BD" d="M13.54 0 0 6.3l3.8 12.78 19 7.47L13.54 0z" style="display:block" transform="translate(152.069 389.807)"/><path fill="#6099BD" d="m46.79 210.49-25.01-13.81v-19.24L62.12 60.02 22.85 84.49 0 71.46v-26.6L96.15 0l27.37 10.38-46.83 127.53 49.21-23.36 20.45 7.84" style="display:block" transform="translate(172.059 182.297)"/><path fill="#50819E" d="M0 47.83V74.4l61.89-31.93-37.52 128.24v29.37l99.41-56.33v-31.44l-61.89 31.44 38.87-125.71V0L0 47.83z" style="display:block" transform="translate(194.709 192.387)"/><g clip-path="url(#e)" style="display:block" transform="translate(-99 -36.26) scale(.81852)"><g style="display:block"><path fill="#050915" fill-opacity=".75" d="m686.355 699.35-126.376 75.645s-5.548 3.067-8.156 3.067c-2.607 0-6.778-3.292-6.778-3.292L368.681 671.552s4.18-3.37 4.513-3.565c.332-.205 133.851-82.131 133.851-82.131l179.31 99.83v13.663z"/></g><g style="display:block"><path fill="#7ED8E9" d="m691.143 677.386-129.39 77.45s-5.68 3.14-8.35 3.14-6.94-3.37-6.94-3.37l-180.57-105.68s4.28-3.45 4.62-3.65c.34-.21 141.55-84.09 141.55-84.09l179.08 102.21v13.99z"/><path fill="none" stroke="#72C2D4" stroke-width=".3" d="m691.143 677.386-129.39 77.45s-5.68 3.14-8.35 3.14-6.94-3.37-6.94-3.37l-180.57-105.68s4.28-3.45 4.62-3.65c.34-.21 141.55-84.09 141.55-84.09l179.08 102.21v13.99z"/></g><path fill="#EDEDED" d="m186.16 108.18.02 11.42S2.9 14.37 1.28 13.12C-.35 11.87.1 0 .1 0l186.06 108.18z" style="display:block" transform="translate(368.293 635.926)"/><path fill="#D0D0D0" d="M0 78.7C50.62 47.99 95.74 21.76 135.37 0v11.72C134.08 12.78 88.95 39.04 0 90.53V78.7z" style="display:block" transform="translate(554.443 664.866)"/><path fill="none" stroke="#FFF" stroke-opacity=".36" stroke-width=".06" d="m321.81 27.07-135.84 79.57L0 0l321.81 27.07z" style="display:block" transform="translate(368.349 640.474)"/><path fill="none" stroke="#FFF" stroke-opacity=".36" stroke-width=".06" d="m321.81 27.07-135.84 79.57L0 0l321.81 27.07z" style="display:block" transform="translate(368.349 643.884)"/><path fill="none" stroke="#FFF" stroke-opacity=".36" stroke-width=".14" d="m321.81 27.07-135.84 79.57L0 0l321.81 27.07z" style="display:block" transform="translate(368.349 647.294)"/><path fill="none" stroke="#FFF" stroke-opacity=".36" stroke-width=".14" d="m321.81 27.07-135.84 79.57L0 0l321.81 27.07z" style="display:block" transform="translate(368.349 642.174)"/><path fill="none" stroke="#FFF" stroke-opacity=".36" stroke-width=".14" d="m321.81 27.07-135.84 79.57L0 0l321.81 27.07z" style="display:block" transform="translate(368.349 645.584)"/><g style="display:block"><path fill="#7ED8E9" d="M690.873 660.926c.6.41 1.3 1.49.82 2.31-.14.25-1.33 1.18-1.58 1.33l-3.56 2.05-124.12 74.2c-3.79 2.1-6.58 3.15-8.36 3.15-1.78 0-4.09-1.13-6.94-3.38l-179.27-103.11a1.7 1.7 0 0 1-.62-2.33c.15-.25.36-.46.61-.61l137.32-79.95c.53-.31 1.18-.31 1.71 0l183.99 106.34z"/><path fill="none" stroke="#72C2D4" stroke-width=".3" d="M690.873 660.926c.6.41 1.3 1.49.82 2.31-.14.25-1.33 1.18-1.58 1.33l-3.56 2.05-124.12 74.2c-3.79 2.1-6.58 3.15-8.36 3.15-1.78 0-4.09-1.13-6.94-3.38l-179.27-103.11a1.7 1.7 0 0 1-.62-2.33c.15-.25.36-.46.61-.61l137.32-79.95c.53-.31 1.18-.31 1.71 0l183.99 106.34z"/></g><path fill="#212B4E" d="M189.08 132.58v-15.46L0 6.72 12.15 0l190.04 110.32v14.66l-13.11 7.6z" style="display:block" transform="translate(381.703 618.686)"/><path fill="#212B4E" d="M12.99 6.06 1.52 12.61 0 11.92V6.3L10.88 0l.29 5.39 1.82.67z" style="display:block" transform="translate(665.473 676.856)"/><path fill="#2E3A64" d="M12.99 6.06 1.72 12.77 0 11.92V6.3L10.88 0l.29 5.39 1.82.67z" style="display:block" transform="translate(634.303 698.976)"/><path fill="#38487D" d="M12.99 6.06 1.72 12.77 0 11.92V6.3L10.88 0l.29 5.39 1.82.67z" style="display:block" transform="translate(596.783 716.206)"/><g style="display:block"><path fill="#7ED8E9" d="m505.563 556.616 182.81 106.31"/><path fill="none" stroke="#72C2D4" stroke-width=".3" d="m505.563 556.616 182.81 106.31"/></g></g><g clip-path="url(#f)" style="display:block" transform="translate(-77.441 -32.89) scale(.81378)"><path fill="#36456B" d="M113.87 278.08c0 1.63-.86 3.13-2.26 3.95L6.88 340.45a4.56 4.56 0 0 1-6.25-1.64c-.42-.7-.63-1.5-.63-2.31L.52 76.62c.36-7.19.88-12.22 1.61-14.24.73-2.01 2.52-4.05 5.36-6.1C76.99 17.61 52.2 31.12 104.75.4c3.83-1.52 6.31 1.59 6.58 4.47.17 1.93.17 7.58 0 12.93l2.54 260.28z" style="display:block" transform="translate(366.209 202.122)"/><g clip-path="url(#g)" style="display:block" transform="translate(167.906 280.445)"><path fill="none" stroke="#7ED8E9" stroke-linecap="round" stroke-linejoin="round" d="m302.74 187.04-129.59 72.78v-42.03l44.17-150.37-76.03 37.67V64.84L272.43 0v31.56l-46.81 150.46 75.96-39.29 1.16 44.31zm-6.28-2.37v-33.44l-80.03 41.32 49.24-159.31V10.43l-117.03 56.1v30.01l76.32-37.69-45.58 158.24v33.34l117.08-65.76zm-185.12 66.4 11.79 32.32 31.12-15.53L80.54 67.63 9.46 344.25l36.56-19.23 13.35-50.06 51.97-23.89zm-2.01 8.25-45.41 20.11-11.1 48.48L0 357.32 80.03 52.19l81.06 219.75-39.43 19.72-12.33-32.34zm-4.8-39.67L82 163.74l-17.08 74.64 39.61-18.73zm6.98 3.39-52.34 24.04 21.35-99.03 30.99 74.99z"/></g></g></g></g></svg>