<svg xmlns="http://www.w3.org/2000/svg" width="1400" height="990" preserveAspectRatio="xMidYMid slice" style="width:100%;height:100%;transform:translate3d(0,0,0)"><defs><clipPath id="a"><path d="M0 0h1400v990H0z"/></clipPath><clipPath id="b"><path d="M0 0h1080v1000H0z"/></clipPath><clipPath id="c"><path d="M0 0h1080v1000H0z"/></clipPath></defs><g clip-path="url(#a)"><path fill="#21242b" d="M0 0h1400v990H0z" style="display:block"/><g clip-path="url(#b)" style="display:block" transform="translate(160 -5)"><path fill="#050915" fill-opacity=".75" d="M4.45 71.17c-5.9 3.01-5.91 7.95-.18 11.26l194.27 112.89c5.74 3.31 15.11 3.28 20.82-.05l125.01-71.95c5.72-3.34 5.66-8.7-.12-11.92L152.7 2.53c-5.78-3.22-15.34-3.39-21.23-.38L4.45 71.17z" style="display:block" transform="translate(186.59 645.92)"/><path fill="#13182A" d="M4.36 66.48c-5.89 3.01-5.73 12.64 0 15.95l194.27 112.89c5.73 3.31 15.1 3.28 20.82-.05l125.01-71.95c6.28-2.45 7.07-13.1 1.28-16.33L152.79 2.53c-5.78-3.22-15.34-3.39-21.23-.38L4.36 66.48z" style="display:block" transform="translate(185.5 630.96)"/><path fill="#182037" d="M4.45 71.17c-5.9 3.01-5.91 7.95-.18 11.26l194.27 112.89c5.74 3.31 15.11 3.28 20.82-.05l125.01-71.95c5.72-3.34 5.66-8.7-.12-11.92L152.7 2.53c-5.78-3.22-15.34-3.39-21.23-.38L4.45 71.17z" style="display:block" transform="translate(185.59 625.25)"/><path fill="#242E4E" d="M184.56 161.62 0 55.28 103.49 0l183.8 103.8-102.73 57.82z" style="display:block" transform="translate(209.73 648.47)"/><path fill="none" stroke="#2D3861" stroke-linecap="round" stroke-linejoin="round" d="M0 44.31 82.45 0" style="display:block" transform="translate(232.51 659.96)"/><path fill="none" stroke="#2D3861" stroke-linecap="round" stroke-linejoin="round" d="M0 44.31 82.45 0" style="display:block" transform="translate(248.58 669.16)"/><path fill="none" stroke="#2D3861" stroke-linecap="round" stroke-linejoin="round" d="M0 44.31 82.45 0" style="display:block" transform="translate(266.25 679.75)"/><path fill="none" stroke="#2D3861" stroke-linecap="round" stroke-linejoin="round" d="M0 44.31 82.45 0" style="display:block" transform="translate(282.14 688.58)"/><path fill="none" stroke="#2D3861" stroke-linecap="round" stroke-linejoin="round" d="M0 44.31 82.45 0" style="display:block" transform="translate(298.04 697.42)"/><path fill="none" stroke="#2D3861" stroke-linecap="round" stroke-linejoin="round" d="M0 44.31 82.45 0" style="display:block" transform="translate(313.94 706.25)"/><path fill="none" stroke="#2D3861" stroke-linecap="round" stroke-linejoin="round" d="M0 44.31 82.45 0" style="display:block" transform="translate(333.36 716.84)"/><path fill="none" stroke="#2D3861" stroke-linecap="round" stroke-linejoin="round" d="M0 44.31 82.45 0" style="display:block" transform="translate(349.26 727.44)"/><path fill="none" stroke="#2D3861" stroke-linecap="round" stroke-linejoin="round" d="M0 44.31 82.45 0" style="display:block" transform="translate(368.69 738.04)"/><path fill="none" stroke="#2D3861" stroke-linecap="round" stroke-linejoin="round" d="M0 44.31 82.45 0" style="display:block" transform="translate(389.88 750.4)"/><g style="display:block"><path fill="#111625" d="M506.03 738.04h10.99c2.91 0 5.27 1.84 5.27 4.12 0 2.28-2.36 4.12-5.27 4.12h-10.99c-2.51 0-4.87-1.84-4.87-4.12 0-2.28 2.36-4.12 5.27-4.12"/><path fill="none" stroke="#090D17" stroke-width=".25" d="M506.03 738.04h10.99c2.91 0 5.27 1.84 5.27 4.12 0 2.28-2.36 4.12-5.27 4.12h-10.99c-2.51 0-4.87-1.84-4.87-4.12 0-2.28 2.36-4.12 5.27-4.12"/></g><g style="display:block"><path fill="#111625" d="m323.28 634.1 5.48.33c2.91 0 5.26 1.84 5.26 4.12 0 2.27-2.35 4.12-5.26 4.12l-5.48-.33c-2.51 0-4.87-1.84-4.87-4.12 0-2.28 2.36-4.12 5.27-4.12"/><path fill="none" stroke="#090D17" stroke-width=".25" d="m323.28 634.1 5.48.33c2.91 0 5.26 1.84 5.26 4.12 0 2.27-2.35 4.12-5.26 4.12l-5.48-.33c-2.51 0-4.87-1.84-4.87-4.12 0-2.28 2.36-4.12 5.27-4.12"/></g><path fill="#050915" fill-opacity=".75" d="M.41 58.75c0-1.52-1.87-1.53 2.36-3.89L91.39 5.29c4.23-2.36 10.47-4.7 13.86-5.18 3.4-.49 5.38.7 4.41 2.64-.97 1.94-5.24 5.44-9.49 7.77L11.85 58.75c-4.24 2.33-7.08 2.8-9.54 2.3" style="display:block" transform="translate(481.375 805.796)"/><path fill="#13182A" d="M.76 64.42c-1.94-2.91-.05-7.21 4.2-9.55L95.07 5.21C99.32 2.87 105.22.56 108.19.07c2.96-.48 5 1.5 4.51 4.41-.48 2.91-4.34 7.22-8.58 9.58L11.99 65.41C7.75 67.77 2.7 67.32.76 64.42" style="display:block" transform="translate(475.215 795.236)"/><path fill="#333" d="M6.01.25c-.24-.39-1.13-.31-1.97.17L.92 2.2C.08 2.68-.25 3.32.2 3.62c.45.3 1.5.15 2.33-.34l2.41-1.43C5.78 1.36 6.26.64 6.01.25" style="display:block" transform="translate(585.865 793.786)"/><path fill="#333" d="M0 0v.88" style="display:block" transform="translate(586.145 796.746)"/><path fill="#1A1A1A" d="M5.91.06c-.36-.18-1.34.06-2.19.53l-2.69 1.5c-.85.47-1.26 1-.9 1.18.35.17 1.33-.07 2.18-.54l2.7-1.49c.84-.48 1.25-1 .9-1.18" style="display:block" transform="translate(585.775 793.726)"/><path fill="#182037" d="M4.93 54.86 93.55 5.29c4.23-2.36 10.47-4.7 13.86-5.18 3.4-.49 5.38.7 4.41 2.64-.97 1.94-5.24 5.44-9.48 7.77L12.01 60.2C7.77 62.54 2.7 63.26.77 61.81c-1.94-1.46-.07-4.59 4.16-6.95z" style="display:block" transform="translate(475.215 795.206)"/><path fill="#333" d="M12.41.79C11.92.01 10.83-.23 9.99.25L.71 5.55c-.84.48-.95 1.37-.24 1.97.71.6 1.99.71 2.83.24l8.46-4.7c.85-.47 1.14-1.49.65-2.27" style="display:block" transform="translate(550.825 807.606)"/><path fill="#333" d="M0 0v1.76" style="display:block" transform="translate(551.785 813.816)"/><path fill="#0D1529" d="M12 .21c-.71-.35-1.98-.25-2.82.22L.72 5.13c-.85.47-.96 1.14-.26 1.49.71.35 1.98.26 2.82-.21l8.46-4.7c.85-.47.97-1.15.26-1.5" style="display:block" transform="translate(550.845 807.676)"/><path fill="#050915" fill-opacity=".75" d="m386.41 129.91-161.47 94.82L0 94.93 162.29 0l224.12 129.91z" style="display:block" transform="translate(378.788 501.918)"/><g style="display:block"><path fill="#0D1529" d="m554.658 480.958-17.37-199.59 6.75-3.87 226.42 130v191c0 3.13-6.91 7.59-6.91 7.59m-162.71 93.38 161.96-94.41c1.56 4.32 1.56 7.12 0 8.38-1.56 1.27-55.55 32.64-161.96 94.13v-8.1z"/></g><path fill="#1C2541" d="M223.54 129.91v8.06S3.47 11.61 1.52 10.11C-.44 8.61.13 0 .13 0l223.41 129.91z" style="display:block" transform="translate(376.62 570.59)"/><g style="display:block"><path fill="#212B4E" d="m538.518 475.938-1.23-195.19 225.65 130.82v194.83m-.49-1.1-161.47 94.82-224.94-129.8 162.29-94.93 224.12 129.91z"/><path fill="none" stroke="#28335C" stroke-width=".3" d="m538.518 475.938-1.23-195.19 225.65 130.82v194.83m-.49-1.1-161.47 94.82-224.94-129.8 162.29-94.93 224.12 129.91z"/></g><g style="display:block"><path fill="#38487D" d="M545.448 464.748v-170.19l209.61 121.69v169.24l-209.61-120.74z"/><path fill="none" stroke="#1C2540" d="M545.448 464.748v-170.19l209.61 121.69v169.24l-209.61-120.74z"/></g><g style="display:block"><path fill="#161B2F" d="M700.968 596.648c-1.58.9-1.54 2.31.08 3.13l13.61 8.54c1.62.82 3.68 1.19 5.74-.31l10.51-6.4c1.52-1.16 1.53-2.19 0-3.33l-14.41-7.51c-1.63-.8-4.27-.7-5.85.2l-9.68 5.68zm-176.88-97.52c-1.62.82-1.66 2.23-.08 3.13l48.66 27.2c1.59.9 3.62 1.38 5.75-.02l9.35-6.1c1.58-1.09 2-2.13.53-3.36l-48.58-27.08c-1.59-.88-4.23-.92-5.86-.1l-9.77 6.33zm-46.47 30.04c-1.62.82-1.66 2.23-.08 3.13l22.05 12.79c1.59.91 3.62 1.38 5.75-.01l11.41-7.54c1.58-1.08 1.99-2.13.52-3.36l-21.89-12.66c-1.6-.88-4.24-.92-5.87-.1l-11.89 7.75zm191.04 77.77c-1.62.82-1.66 2.23-.08 3.13l21.88 12.22c1.58.9 3.61 1.38 5.75-.02l11.6-6.96c1.58-1.08 2-2.13.53-3.35l-22.62-12.62c-1.6-.88-4.24-.92-5.86-.1l-11.2 7.7zm-169.98-39.33c-1.62.82-1.66 2.23-.08 3.13l91.23 52.34c1.59.9 3.62 1.38 5.75-.01l11.41-7.55c1.58-1.08 1.99-2.12.52-3.35l-91.65-51.74c-1.6-.88-4.24-.92-5.86-.1l-11.32 7.28zm180.79 18.24c-1.59.88-1.58 2.29.03 3.14l12.37 7.07c1.62.85 3.67 1.25 5.75-.21l9.51-6.62c1.54-1.15 1.91-2.2.4-3.38l-12.37-7.06c-1.62-.82-4.26-.77-5.86.1l-9.83 6.96zm-22.54-12.67c-1.59.88-1.58 2.29.03 3.13l13.61 7.4c1.61.86 3.66 1.26 5.75-.21l8.77-6.39c1.54-1.13 1.92-2.2.41-3.36l-13.67-7.21c-1.62-.83-4.26-.77-5.86.1l-9.04 6.54zm-12.84 21.05c-1.62.82-1.66 2.23-.08 3.13l14.77 8.31c1.58.91 3.61 1.38 5.74-.01l11.02-7.44c1.58-1.08 2-2.13.53-3.35l-14.66-8.06c-1.6-.88-4.24-.92-5.87-.1l-11.45 7.52zm-21.92-11.73c-1.62.82-1.66 2.23-.08 3.13l14.16 7.56c1.59.9 3.61 1.38 5.75-.02l11.41-7.54c1.58-1.08 1.99-2.13.52-3.35l-14.66-8.06c-1.6-.88-4.24-.92-5.87-.1l-11.23 8.38zm-25.1-14.57c-1.62.82-1.66 2.23-.08 3.13l14.16 8.34c1.59.9 3.61 1.38 5.75-.02l11.41-7.54c1.58-1.08 1.99-2.13.52-3.35l-14.66-8.06c-1.6-.88-4.24-.92-5.87-.1l-11.23 7.6zm-25.17-13.97c-1.62.82-1.66 2.23-.08 3.13l14.61 8.29c1.59.91 3.62 1.39 5.75-.01l10.92-7.46c1.58-1.08 2-2.13.53-3.35l-14.67-8.06c-1.59-.88-4.23-.92-5.86-.1l-11.2 7.56zm-24.88-13.82c-1.62.82-1.66 2.23-.08 3.13l14.57 8.31c1.58.9 3.61 1.38 5.75-.02l11.4-7.54c1.58-1.08 2-2.13.53-3.35l-14.67-8.06c-1.59-.88-4.23-.92-5.86-.1l-11.64 7.63zm-22.53-12.68c-1.62.82-1.66 2.23-.08 3.14l14.32 8.34c1.59.9 3.62 1.38 5.75-.02l11.41-7.54c1.58-1.08 1.99-2.13.53-3.35l-14.67-8.06c-1.6-.88-4.24-.92-5.86-.1l-11.4 7.59zm109.36 33.28c-1.62.82-1.66 2.23-.08 3.13l14.82 7.98c1.58.9 3.61 1.38 5.75-.02l9.01-6.83c1.58-1.08 2-2.12.53-3.35l-14.14-7.36c-1.59-.88-4.23-.92-5.86-.1l-10.03 6.55zm-26.63-14.6c-1.62.82-1.66 2.23-.08 3.13l15 8.24c1.59.9 3.61 1.38 5.75-.01l9.33-6.14c1.58-1.08 1.99-2.13.52-3.35l-14.66-8.06c-1.6-.88-4.24-.92-5.87-.1l-9.99 6.29zm-99.39-.17c-1.62.82-1.66 2.23-.08 3.13l14.73 8.31c1.58.91 3.61 1.39 5.75-.01l12.01-8.08c1.58-1.08 2-2.13.53-3.35l-14.67-8.06c-1.59-.88-4.23-.92-5.86-.1l-12.41 8.16zm25.13 14.13c-1.62.82-1.66 2.23-.08 3.13l14.67 7.99c1.59.9 3.62 1.38 5.75-.01l11.51-7.56c1.58-1.08 2-2.13.53-3.35l-14.67-8.06c-1.6-.88-4.23-.92-5.86-.1l-11.85 7.96zm47.19 26.26c-1.62.82-1.66 2.23-.08 3.13l14.61 8.3c1.58.9 3.61 1.38 5.75-.02l12.68-7.5c1.58-1.08 1.99-2.13.53-3.35l-14.67-8.06c-1.6-.88-4.24-.92-5.86-.1l-12.96 7.6zm-23.01-12.68c-1.62.82-1.66 2.23-.08 3.14l14.8 8.25c1.58.9 3.61 1.38 5.75-.02l11.4-7.54c1.58-1.08 2-2.13.53-3.35l-14.67-8.06c-1.59-.88-4.23-.92-5.86-.1l-11.87 7.68zm45.93 25.31c-1.62.82-1.66 2.23-.08 3.13l15.21 8.68c1.58.9 3.61 1.38 5.74-.02l11.3-7.57c1.58-1.08 1.99-2.13.52-3.35l-14.66-8.06c-1.6-.88-4.24-.92-5.86-.1l-12.17 7.29zm23.09 12.64c-1.62.82-1.66 2.23-.08 3.13l14.24 8.66c1.59.9 3.62 1.38 5.75-.02l11.61-7.63c1.58-1.08 2-2.13.53-3.35l-14.67-8.06c-1.59-.88-4.23-.92-5.86-.1l-11.52 7.37zm23.95 13.95c-1.62.82-1.66 2.23-.08 3.13l14.85 8.33c1.58.9 3.61 1.38 5.75-.02l10.73-7.53c1.58-1.08 1.99-2.13.52-3.35l-14.66-8.06c-1.6-.88-4.24-.92-5.86-.1l-11.25 7.6zm-24.45 13.71c-1.62.82-1.66 2.23-.08 3.13l14.24 8.66c1.59.9 3.62 1.38 5.75-.02l11.41-7.54c1.58-1.08 1.99-2.13.52-3.35l-14.66-8.06c-1.6-.88-4.24-.92-5.86-.1l-11.32 7.28zm-24.58-14.33c-1.62.82-1.66 2.23-.08 3.13l14.24 8.66c1.59.9 3.62 1.38 5.75-.02l11.41-7.54c1.58-1.08 1.99-2.13.52-3.35l-14.66-8.06c-1.6-.88-4.24-.92-5.86-.1l-11.32 7.28zm-126.97-71.68c-1.62.82-1.66 2.23-.08 3.13l14.24 8.66c1.59.9 3.62 1.38 5.75-.02l11.41-7.54c1.58-1.08 1.99-2.13.52-3.35l-14.66-8.06c-1.6-.88-4.24-.92-5.86-.1l-11.32 7.28zm-21.02-11.35c-1.62.82-1.66 2.23-.08 3.13l12.73 7.72c1.58.9 3.61 1.38 5.75-.02l11.4-7.54c1.58-1.08 2-2.13.53-3.35l-13.15-7.12c-1.6-.88-4.24-.92-5.86-.1l-11.32 7.28zm47.74-27.46c-1.62.82-1.66 2.23-.08 3.13l14.65 8.31c1.58.9 3.61 1.38 5.75-.02l11.4-7.54c1.59-1.08 2-2.13.53-3.35l-14.66-8.06c-1.6-.88-4.24-.92-5.87-.1l-11.72 7.63zm81.82 17.62c-1.62.82-1.66 2.23-.08 3.13l14.75 8.07c1.58.9 3.61 1.38 5.74-.02l9.21-6.24c1.58-1.08 1.99-2.13.52-3.35l-14.66-8.06c-1.6-.88-4.24-.92-5.86-.1l-9.62 6.57z"/></g><g style="display:block"><path fill="#2E3A64" d="M701.008 594.598c-1.58.9-1.54 2.31.08 3.13l13.61 8.54c1.62.82 3.68 1.19 5.74-.31l10.51-6.4c1.52-1.16 1.53-2.19 0-3.33l-14.41-7.51c-1.63-.8-4.27-.7-5.85.2l-9.68 5.68zm-176.88-97.52c-1.62.82-1.66 2.23-.08 3.13l48.66 27.2c1.59.9 3.62 1.38 5.75-.02l9.35-6.1c1.58-1.09 2-2.13.53-3.36l-48.58-27.08c-1.59-.88-4.23-.92-5.86-.1l-9.77 6.33zm-46.47 30.04c-1.62.82-1.66 2.23-.08 3.13l22.05 12.79c1.59.91 3.62 1.38 5.75-.01l11.41-7.54c1.58-1.08 1.99-2.13.52-3.36l-21.89-12.66c-1.6-.88-4.24-.92-5.87-.1l-11.89 7.75zm191.04 77.77c-1.62.82-1.66 2.23-.08 3.13l21.88 12.22c1.58.9 3.61 1.38 5.75-.02l11.6-6.96c1.58-1.08 2-2.13.53-3.35l-22.62-12.62c-1.6-.88-4.24-.92-5.86-.1l-11.2 7.7zm-169.98-39.33c-1.62.82-1.66 2.23-.08 3.13l91.23 52.34c1.59.9 3.62 1.38 5.75-.01l11.41-7.55c1.58-1.08 1.99-2.12.52-3.35l-91.65-51.74c-1.6-.88-4.24-.92-5.86-.1l-11.32 7.28zm180.79 18.24c-1.59.88-1.58 2.29.03 3.14l12.37 7.07c1.62.85 3.67 1.25 5.75-.21l9.51-6.62c1.54-1.15 1.91-2.2.4-3.38l-12.37-7.06c-1.62-.82-4.26-.77-5.86.1l-9.83 6.96zm-22.54-12.67c-1.59.88-1.58 2.29.03 3.13l13.61 7.4c1.61.86 3.66 1.26 5.75-.21l8.77-6.39c1.54-1.13 1.92-2.2.41-3.36l-13.67-7.21c-1.62-.83-4.26-.77-5.86.1l-9.04 6.54zm-12.84 21.05c-1.62.82-1.66 2.23-.08 3.13l14.77 8.31c1.58.91 3.61 1.38 5.74-.01l11.02-7.44c1.58-1.08 2-2.13.53-3.35l-14.66-8.06c-1.6-.88-4.24-.92-5.87-.1l-11.45 7.52zm-21.92-11.73c-1.62.82-1.66 2.23-.08 3.13l14.16 7.56c1.59.9 3.61 1.38 5.75-.02l11.41-7.54c1.58-1.08 1.99-2.13.52-3.35l-14.66-8.06c-1.6-.88-4.24-.92-5.87-.1l-11.23 8.38zm-25.1-14.57c-1.62.82-1.66 2.23-.08 3.13l14.16 8.34c1.59.9 3.61 1.38 5.75-.02l11.41-7.54c1.58-1.08 1.99-2.13.52-3.35l-14.66-8.06c-1.6-.88-4.24-.92-5.87-.1l-11.23 7.6zm-25.17-13.97c-1.62.82-1.66 2.23-.08 3.13l14.61 8.29c1.59.91 3.62 1.39 5.75-.01l10.92-7.46c1.58-1.08 2-2.13.53-3.35l-14.67-8.06c-1.59-.88-4.23-.92-5.86-.1l-11.2 7.56zm-24.88-13.82c-1.62.82-1.66 2.23-.08 3.13l14.57 8.31c1.58.9 3.61 1.38 5.75-.02l11.4-7.54c1.58-1.08 2-2.13.53-3.35l-14.67-8.06c-1.59-.88-4.23-.92-5.86-.1l-11.64 7.63zm-22.53-12.68c-1.62.82-1.66 2.23-.08 3.14l14.32 8.34c1.59.9 3.62 1.38 5.75-.02l11.41-7.54c1.58-1.08 1.99-2.13.53-3.35l-14.67-8.06c-1.6-.88-4.24-.92-5.86-.1l-11.4 7.59zm109.36 33.28c-1.62.82-1.66 2.23-.08 3.13l14.82 7.98c1.58.9 3.61 1.38 5.75-.02l9.01-6.83c1.58-1.08 2-2.12.53-3.35l-14.14-7.36c-1.59-.88-4.23-.92-5.86-.1l-10.03 6.55zm-26.63-14.6c-1.62.82-1.66 2.23-.08 3.13l15 8.24c1.59.9 3.61 1.38 5.75-.01l9.33-6.14c1.58-1.08 1.99-2.13.52-3.35l-14.66-8.06c-1.6-.88-4.24-.92-5.87-.1l-9.99 6.29zm-99.39-.17c-1.62.82-1.66 2.23-.08 3.13l14.73 8.31c1.58.91 3.61 1.39 5.75-.01l12.01-8.08c1.58-1.08 2-2.13.53-3.35l-14.67-8.06c-1.59-.88-4.23-.92-5.86-.1l-12.41 8.16zm25.13 14.13c-1.62.82-1.66 2.23-.08 3.13l14.67 7.99c1.59.9 3.62 1.38 5.75-.01l11.51-7.56c1.58-1.08 2-2.13.53-3.35l-14.67-8.06c-1.6-.88-4.23-.92-5.86-.1l-11.85 7.96zm47.19 26.26c-1.62.82-1.66 2.23-.08 3.13l14.61 8.3c1.58.9 3.61 1.38 5.75-.02l12.68-7.5c1.58-1.08 1.99-2.13.53-3.35l-14.67-8.06c-1.6-.88-4.24-.92-5.86-.1l-12.96 7.6zm-23.01-12.68c-1.62.82-1.66 2.23-.08 3.14l14.8 8.25c1.58.9 3.61 1.38 5.75-.02l11.4-7.54c1.58-1.08 2-2.13.53-3.35l-14.67-8.06c-1.59-.88-4.23-.92-5.86-.1l-11.87 7.68zm45.93 25.31c-1.62.82-1.66 2.23-.08 3.13l15.21 8.68c1.58.9 3.61 1.38 5.74-.02l11.3-7.57c1.58-1.08 1.99-2.13.52-3.35l-14.66-8.06c-1.6-.88-4.24-.92-5.86-.1l-12.17 7.29zm23.09 12.64c-1.62.82-1.66 2.23-.08 3.13l14.24 8.66c1.59.9 3.62 1.38 5.75-.02l11.61-7.63c1.58-1.08 2-2.13.53-3.35l-14.67-8.06c-1.59-.88-4.23-.92-5.86-.1l-11.52 7.37zm23.95 13.95c-1.62.82-1.66 2.23-.08 3.13l14.85 8.33c1.58.9 3.61 1.38 5.75-.02l10.73-7.53c1.58-1.08 1.99-2.13.52-3.35l-14.66-8.06c-1.6-.88-4.24-.92-5.86-.1l-11.25 7.6zm-24.45 13.71c-1.62.82-1.66 2.23-.08 3.13l14.24 8.66c1.59.9 3.62 1.38 5.75-.02l11.41-7.54c1.58-1.08 1.99-2.13.52-3.35l-14.66-8.06c-1.6-.88-4.24-.92-5.86-.1l-11.32 7.28zm-24.58-14.33c-1.62.82-1.66 2.23-.08 3.13l14.24 8.66c1.59.9 3.62 1.38 5.75-.02l11.41-7.54c1.58-1.08 1.99-2.13.52-3.35l-14.66-8.06c-1.6-.88-4.24-.92-5.86-.1l-11.32 7.28zm-126.97-71.68c-1.62.82-1.66 2.23-.08 3.13l14.24 8.66c1.59.9 3.62 1.38 5.75-.02l11.41-7.54c1.58-1.08 1.99-2.13.52-3.35l-14.66-8.06c-1.6-.88-4.24-.92-5.86-.1l-11.32 7.28zm-21.02-11.35c-1.62.82-1.66 2.23-.08 3.13l12.73 7.72c1.58.9 3.61 1.38 5.75-.02l11.4-7.54c1.58-1.08 2-2.13.53-3.35l-13.15-7.12c-1.6-.88-4.24-.92-5.86-.1l-11.32 7.28zm47.74-27.46c-1.62.82-1.66 2.23-.08 3.13l14.65 8.31c1.58.9 3.61 1.38 5.75-.02l11.4-7.54c1.59-1.08 2-2.13.53-3.35l-14.66-8.06c-1.6-.88-4.24-.92-5.87-.1l-11.72 7.63zm81.82 17.62c-1.62.82-1.66 2.23-.08 3.13l14.75 8.07c1.58.9 3.61 1.38 5.74-.02l9.21-6.24c1.58-1.08 1.99-2.13.52-3.35l-14.66-8.06c-1.6-.88-4.24-.92-5.86-.1l-9.62 6.57z"/></g><path fill="#293358" d="M71.76 61.89 0 22.13 41.83 0l71.74 40.25-41.81 21.64z" style="display:block" transform="translate(463.098 588.668)"/><path fill="none" stroke="#FFF" stroke-opacity=".529" d="M158.17 210.54 3 299.7c-.96.55-2.18.22-2.73-.74-.18-.3-.27-.64-.27-.99V92.82c0-1.07.57-2.06 1.5-2.6L156.68.27c.95-.55 2.18-.23 2.73.73.18.3.27.65.27 1v205.94c0 1.07-.57 2.06-1.51 2.6z" style="display:block" transform="translate(306.633 208.95)"/><path fill="none" stroke="#FFF" stroke-opacity=".53" d="M82.14 211.59c44.35-27.49 79.66-91.43 78.85-142.81-.81-51.38-37.58-80.24-82.12-64.47C34.33 20.08-.97 84.02.02 147.12c1 63.1 37.76 91.97 82.12 64.47z" style="display:block" transform="translate(306.553 250.97)"/><g style="display:block"><path fill="#F0F0F0" d="m301.573 502.46-5.97-1.67 17.08-9.69 6.37 1.33-17.48 10.03zm-.08-.27-5.94-1.53v22.92l5.94 1.96v-23.35z"/></g><path fill="#E7E7E7" d="M17.58 23.08 0 33.18V10.02L17.58 0v23.08z" style="display:block" transform="translate(301.363 492.34)"/><g style="display:block"><path fill="#F0F0F0" d="m388.573 455.46-5.97-1.67 17.08-9.69 6.37 1.33-17.48 10.03zm-.08-.27-5.94-1.53v22.92l5.94 1.96v-23.35z"/></g><path fill="#E7E7E7" d="M17.58 23.08 0 33.18V10.02L17.58 0v23.08z" style="display:block" transform="translate(388.363 445.34)"/><g style="display:block"><path fill="#F0F0F0" d="m459.573 418.46-5.97-1.67 17.08-9.69 6.37 1.33-17.48 10.03zm-.08-.27-5.94-1.53v22.92l5.94 1.96v-23.35z"/></g><path fill="#E7E7E7" d="M17.58 23.08 0 33.18V10.02L17.58 0v23.08z" style="display:block" transform="translate(459.363 408.34)"/><g style="display:block"><path fill="#F0F0F0" d="m459.573 209.46-5.97-1.67 17.08-9.69 6.37 1.33-17.48 10.03zm-.08-.27-5.94-1.53v22.92l5.94 1.96v-23.35z"/></g><path fill="#E7E7E7" d="M17.58 23.08 0 33.18V10.02L17.58 0v23.08z" style="display:block" transform="translate(459.363 199.34)"/><g style="display:block"><path fill="#F0F0F0" d="m461.573 323.46-5.97-1.67 17.08-9.69 6.37 1.33-17.48 10.03zm-.08-.27-5.94-1.53v22.92l5.94 1.96v-23.35z"/></g><path fill="#E7E7E7" d="M17.58 23.08 0 33.18V10.02L17.58 0v23.08z" style="display:block" transform="translate(461.363 313.34)"/><g style="display:block"><path fill="#F0F0F0" d="m376.573 250.46-5.97-1.67 17.08-9.69 6.37 1.33-17.48 10.03zm-.08-.27-5.94-1.53v22.92l5.94 1.96v-23.35z"/></g><path fill="#E7E7E7" d="M17.58 23.08 0 33.18V10.02L17.58 0v23.08z" style="display:block" transform="translate(376.363 240.34)"/><g style="display:block"><path fill="#F0F0F0" d="m301.573 288.46-5.97-1.67 17.08-9.69 6.37 1.33-17.48 10.03zm-.08-.27-5.94-1.53v22.92l5.94 1.96v-23.35z"/></g><path fill="#E7E7E7" d="M17.58 23.08 0 33.18V10.02L17.58 0v23.08z" style="display:block" transform="translate(301.363 278.34)"/><g style="display:block"><path fill="#F0F0F0" d="m300.573 405.46-5.97-1.67 17.08-9.69 6.37 1.33-17.48 10.03zm-.08-.27-5.94-1.53v22.92l5.94 1.96v-23.35z"/></g><path fill="#E7E7E7" d="M17.58 23.08 0 33.18V10.02L17.58 0v23.08z" style="display:block" transform="translate(300.363 395.34)"/><path fill="#7ED8E9" d="M102.43 40.99c1.38-.18-24.42 14.12-77.42 42.9-9.54 5.31-22.19 2.82-24.53-8.3-2.34-11.12 4.1-22.16 13.72-27.13C82 10.42 18.26 46.36 98.89.73c3.63-1.37 18.84-2.49 20.78 13.09 1.3 10.39-4.45 19.44-17.24 27.17z" style="display:block" transform="translate(325.974 329.604)"/><g style="display:block"><path fill="#FFF" d="m409.004 354.534 2.69-1.43.18 1.58.06-.03c.29-.85.68-1.58 1.22-2.18.53-.61 1.08-1.07 1.67-1.39.74-.41 1.37-.63 1.87-.65.5-.03.92.08 1.23.33.33.25.59.64.77 1.16.19.52.34 1.13.43 1.82l1 6.99-2.82 1.52-.89-6.42c-.13-.93-.35-1.57-.67-1.88-.32-.32-.81-.31-1.48.06-.76.41-1.29.96-1.58 1.65-.28.69-.36 1.61-.22 2.77l.79 5.97-2.89 1.52-1.36-11.39zm-13.75 13.13c.04-.92.23-1.8.55-2.64.33-.84.77-1.61 1.31-2.32.54-.7 1.18-1.32 1.92-1.86s1.54-.97 2.43-1.28c.89-.32 1.68-.46 2.38-.42.7.02 1.3.21 1.78.55.48.34.85.84 1.1 1.48.25.65.36 1.44.34 2.35-.03.92-.18 1.8-.48 2.64-.29.84-.7 1.6-1.22 2.32-.52.7-1.15 1.32-1.89 1.86s-1.56.96-2.47 1.28c-.91.32-1.73.45-2.45.42-.72-.03-1.34-.21-1.85-.56-.51-.34-.89-.84-1.14-1.49-.25-.64-.36-1.41-.31-2.33zm4.82-1.52c.07.46.18.87.32 1.26.15.38.35.69.6.92.25.23.56.35.92.37.36.01.78-.12 1.27-.4.49-.29.88-.63 1.18-1.03.3-.4.51-.82.65-1.28.14-.46.21-.93.22-1.4.01-.48-.02-.95-.09-1.4-.07-.45-.18-.88-.33-1.27-.15-.39-.35-.69-.59-.92-.25-.22-.55-.34-.91-.36-.35-.02-.77.11-1.25.4-.48.28-.87.62-1.16 1.02-.29.4-.51.83-.66 1.28-.15.45-.23.92-.25 1.4-.01.49.01.96.08 1.41zm-7.34-1.84 2.15-1.19.23 2.08-2.16 1.21.65 5.64c.07.53.2.83.39.92.19.09.54-.02 1.04-.29.18-.09.34-.19.49-.29.15-.1.29-.2.43-.3l.32 2.43c-.25.17-.52.36-.84.54-.3.19-.6.36-.91.53-.46.25-.9.46-1.34.61-.43.16-.81.24-1.16.22-.34-.01-.63-.15-.85-.4-.24-.26-.38-.67-.45-1.25l-.75-6.74-1.81.99-.21-2.09 1.81-.99-.32-3.42 2.94-1.62.35 3.41zm-7.75 4.41 2.21-1.2.19 2.1-2.22 1.2.56 5.67c.06.53.19.83.38.91.19.09.55-.01 1.06-.29.19-.08.35-.18.5-.28.16-.11.31-.2.44-.31l.29 2.44c-.25.18-.55.37-.86.55-.31.18-.62.36-.94.51-.47.27-.94.47-1.37.63-.44.16-.83.24-1.18.22a1.2 1.2 0 0 1-.87-.41c-.22-.25-.36-.66-.42-1.24l-.64-6.76-1.86.99-.17-2.1 1.86-.99-.27-3.42 3.02-1.64.29 3.42zm-5.52 15.24-3.02 1.58-.15-1.6-.06.03a6.7 6.7 0 0 1-1.45 2.26c-.62.64-1.27 1.13-1.96 1.48-.86.44-1.58.7-2.15.76-.57.06-1.04-.03-1.39-.27-.35-.25-.62-.63-.79-1.15-.17-.52-.28-1.14-.32-1.85l-.42-7.08 3.17-1.65.42 6.49c.08.95.28 1.58.61 1.89.35.32.9.27 1.66-.13.87-.44 1.48-1.03 1.83-1.75.34-.71.46-1.65.36-2.82l-.43-6.01 3.1-1.64.99 11.46zm-23.66 9.65 3.92-2.04c.36-.19.7-.4 1.02-.64.32-.23.59-.49.83-.78.23-.29.41-.6.54-.95.13-.34.17-.72.14-1.14-.05-.81-.33-1.27-.83-1.37-.49-.1-1.13.06-1.91.47l-3.96 2.07.25 4.38zm-4.32-11.31 7.75-3.93c.77-.39 1.47-.68 2.11-.88.65-.19 1.19-.25 1.66-.18.46.08.82.29 1.09.67.27.38.42.94.45 1.68a4.9 4.9 0 0 1-.46 2.29c-.36.72-.89 1.44-1.6 2.16 1.02-.23 1.79-.13 2.33.33.54.45.83 1.18.89 2.17.05.8-.06 1.58-.35 2.33a7.75 7.75 0 0 1-1.21 2.1c-.53.65-1.14 1.25-1.84 1.78-.69.54-1.42 1-2.18 1.37l-8.22 4.09-.42-15.98zm3.95 4.54 3.67-1.92c.64-.34 1.15-.77 1.55-1.28.39-.52.57-1.11.53-1.78-.02-.37-.1-.64-.25-.8a.78.78 0 0 0-.58-.27c-.23-.01-.49.04-.79.14-.3.11-.61.24-.93.41l-3.36 1.78.16 3.72z"/></g><path fill="#050915" fill-opacity=".75" d="M3.15 100.6c-4.21-2.45-4.2-6.44.03-8.87L159.97 1.8c4.23-2.42 11.13-2.4 15.34.05l87.64 51.04c4.21 2.45 4.19 6.44-.03 8.87l-156.8 89.93c-4.22 2.42-11.13 2.4-15.34-.06L3.15 100.6z" style="display:block" transform="translate(626.592 689.206)"/><path fill="#0D1529" d="M0 93.13c0-1.75.74-2.99 1.77-3.5 2.92-1.92 8.81-5.39 13.09-7.69L165.92.37a3.06 3.06 0 0 1 2.99.04l93.3 48.99c1.06.52 3.54 1.75 4.31 4.48.86 3.04.96 6.94-3.3 9.11L105.2 153.05a13.773 13.773 0 0 1-13.72-.04L1.55 101.02A3.08 3.08 0 0 1 0 98.35v-5.22z" style="display:block" transform="translate(632.072 667.296)"/><path fill="#121D40" d="M0 11.29c0-1.76.74-3.02 1.76-3.53C4.67 5.82 10.53 2.33 14.79 0c0 0 87.41 65.39 83.17 67.58v5.98c-2.39.01-4.78-.61-6.91-1.87L1.54 19.25A3.123 3.123 0 0 1 0 16.56v-5.27z" style="display:block" transform="translate(632.072 748.596)"/><path fill="#212B4E" d="M3.14 98.96c-4.2-2.41-4.18-6.34.03-8.72L159.33 1.77c4.21-2.38 11.09-2.36 15.28.05l87.28 50.21c4.2 2.41 4.18 6.33-.03 8.72L105.7 149.21c-4.21 2.39-11.09 2.36-15.28-.05L3.14 98.96z" style="display:block" transform="translate(632.072 663.426)"/><g style="display:block"><path fill="#38487D" d="m650.352 747.076 128.88-72.01 96.89 56.33-126.22 71.43-99.55-55.75z"/><path fill="none" stroke="#1C2540" d="m650.352 747.076 128.88-72.01 96.89 56.33-126.22 71.43-99.55-55.75z"/></g><path fill="#38487D" d="M11.78 4.84c0 2.67-2.64 4.84-5.89 4.84C2.64 9.68 0 7.51 0 4.84S2.64 0 5.89 0c3.25 0 5.89 2.17 5.89 4.84" style="display:block" transform="translate(685.082 779.566)"/><path fill="#38487D" d="m.35 2.24 16.19 9.28c.21.12.47.13.69.02l2-.95c.51-.25.54-.93.05-1.21L3.09.1A.763.763 0 0 0 2.4.07l-2 .96c-.51.24-.54.93-.05 1.21" style="display:block" transform="translate(826.432 688.586)"/><g clip-path="url(#c)" style="display:block"><path fill="#7ED8E9" fill-opacity=".5" d="M0 65.28 116.84 0l87.83 51.06-114.42 64.76L0 65.28z" style="display:block" transform="translate(664.046 668.602)"/><g style="display:block"><path fill="none" stroke="#7ED8E9" stroke-linecap="round" stroke-linejoin="round" stroke-width="4" d="m829.85 701.11-95.21-6.52m53.75 32.17-10.71-56.09m-44.78 23.66 55.66 32.88 43.54-25.94-54.7-31.14-44.5 24.2z"/></g><path fill="#7ED8E9" d="M1.67 5.43S31.67 24 55.24 37.5c2.23 1.23 5.14.69 6.24-1.98 1.1-2.67-2.95-5.03-4.31-6.11C34.19 15.73 30.16 12.64 10.83 1.09c-.85-.31-5.81-2.29-9.16 0-3.34 2.3 0 4.34 0 4.34z" style="display:block" transform="translate(714.49 701.62)"/><path fill="#7ED8E9" d="M1.67 5.43S31.67 24 55.24 37.5c2.23 1.23 5.14.69 6.24-1.98 1.1-2.67-2.95-5.03-4.31-6.11C34.19 15.73 30.16 12.64 10.83 1.09c-.85-.31-5.81-2.29-9.16 0-3.34 2.3 0 4.34 0 4.34z" style="display:block" transform="translate(698.67 710.41)"/><path fill="#7ED8E9" fill-opacity=".5" d="m0 321.51 175.47 100.82V101.71L0 0v321.51z" style="display:block" transform="translate(534.291 132.43)"/><path fill="#7ED8E9" d="M4.07 9.57s44.52 25.81 68.08 39.31c2.23 1.24 5.14.7 6.24-1.97 1.1-2.67-.59-4.14-1.95-5.22C53.46 28.01 24.22 11.72 4.89.17 4.04-.15.5-.41.04 3.23c-.45 3.63 4.03 6.34 4.03 6.34z" style="display:block" transform="translate(588.006 198.518)"/><path fill="#7ED8E9" d="M4.07 9.57s44.52 25.81 68.08 39.31c2.23 1.24 5.14.7 6.24-1.97 1.1-2.67-.59-4.14-1.95-5.22C53.46 28.01 24.22 11.72 4.89.17 4.04-.15.5-.41.04 3.23c-.45 3.63 4.03 6.34 4.03 6.34z" style="display:block" transform="translate(588.006 227.188)"/><path fill="#7ED8E9" d="M4.07 9.57s44.52 25.81 68.08 39.31c2.23 1.24 5.14.7 6.24-1.97 1.1-2.67-.59-4.14-1.95-5.22C53.46 28.01 24.22 11.72 4.89.17 4.04-.15.5-.41.04 3.23c-.45 3.63 4.03 6.34 4.03 6.34z" style="display:block" transform="translate(588.006 255.858)"/><path fill="#7ED8E9" d="M4.07 9.57s32.31 18.61 55.88 32.11c2.22 1.23 5.14.69 6.24-1.98 1.1-2.67-.59-4.14-1.95-5.22C41.26 20.8 24.22 11.72 4.89.17 4.04-.15.5-.41.04 3.23c-.45 3.63 4.03 6.34 4.03 6.34z" style="display:block" transform="translate(524.126 338.628)"/><path fill="#7ED8E9" d="M4.07 9.57s31.74 18.45 55.3 31.95c2.23 1.23 5.15.69 6.24-1.98 1.1-2.67-.58-4.14-1.95-5.22C40.69 20.64 24.22 11.72 4.89.17 4.04-.15.5-.41.04 3.23c-.45 3.63 4.03 6.34 4.03 6.34z" style="display:block" transform="translate(593.506 378.308)"/><g style="display:block"><path fill="none" stroke="#7ED8E9" stroke-linecap="round" stroke-linejoin="round" stroke-width="4" d="m528.906 160.468 38.41 99.4m-38.72-24.36 38.52-51.06m-38.5 51.54 39.22 23.96v-76.18l-39.22-24.16v76.38zm.71 211.68 52.7-43.63m-53.1-32.63 52.86 107.44m-53.15-30.68 54.15 31.27v-76.17l-54.15-32.72v77.62zm0-121.24 134.07 77.2v-62.66l-134.07-77.41v62.87zm68.26 159.66 52.7-43.63m-53.11-32.64 52.86 107.44m-53.15-30.68 54.15 31.27v-76.17l-54.15-32.72v77.62z"/></g></g></g></g></svg>